<?xml version="1.0" encoding="utf-8" standalone="no"?>
<!DOCTYPE svg PUBLIC "-//W3C//DTD SVG 1.1//EN"
  "http://www.w3.org/Graphics/SVG/1.1/DTD/svg11.dtd">
<svg xmlns:xlink="http://www.w3.org/1999/xlink" width="460.8pt" height="345.6pt" viewBox="0 0 460.8 345.6" xmlns="http://www.w3.org/2000/svg" version="1.1">
 <metadata>
  <rdf:RDF xmlns:dc="http://purl.org/dc/elements/1.1/" xmlns:cc="http://creativecommons.org/ns#" xmlns:rdf="http://www.w3.org/1999/02/22-rdf-syntax-ns#">
   <cc:Work>
    <dc:type rdf:resource="http://purl.org/dc/dcmitype/StillImage"/>
    <dc:date>2022-06-29T20:28:04.854720</dc:date>
    <dc:format>image/svg+xml</dc:format>
    <dc:creator>
     <cc:Agent>
      <dc:title>Matplotlib v3.5.1, https://matplotlib.org/</dc:title>
     </cc:Agent>
    </dc:creator>
   </cc:Work>
  </rdf:RDF>
 </metadata>
 <defs>
  <style type="text/css">*{stroke-linejoin: round; stroke-linecap: butt}</style>
 </defs>
 <g id="figure_1">
  <g id="patch_1">
   <path d="M 0 345.6 
L 460.8 345.6 
L 460.8 0 
L 0 0 
z
" style="fill: #ffffff"/>
  </g>
  <g id="axes_1">
   <g id="patch_2">
    <path d="M 57.6 307.584 
L 414.72 307.584 
L 414.72 41.472 
L 57.6 41.472 
z
" style="fill: #ffffff"/>
   </g>
   <g id="matplotlib.axis_1">
    <g id="xtick_1">
     <g id="line2d_1">
      <defs>
       <path id="m6df3b8cb0f" d="M 0 0 
L 0 3.5 
" style="stroke: #000000; stroke-width: 0.8"/>
      </defs>
      <g>
       <use xlink:href="#m6df3b8cb0f" x="73.832727" y="307.584" style="stroke: #000000; stroke-width: 0.8"/>
      </g>
     </g>
     <g id="text_1">
      <!-- 0 -->
      <g transform="translate(70.651477 322.182437)scale(0.1 -0.1)">
       <defs>
        <path id="DejaVuSans-30" d="M 2034 4250 
Q 1547 4250 1301 3770 
Q 1056 3291 1056 2328 
Q 1056 1369 1301 889 
Q 1547 409 2034 409 
Q 2525 409 2770 889 
Q 3016 1369 3016 2328 
Q 3016 3291 2770 3770 
Q 2525 4250 2034 4250 
z
M 2034 4750 
Q 2819 4750 3233 4129 
Q 3647 3509 3647 2328 
Q 3647 1150 3233 529 
Q 2819 -91 2034 -91 
Q 1250 -91 836 529 
Q 422 1150 422 2328 
Q 422 3509 836 4129 
Q 1250 4750 2034 4750 
z
" transform="scale(0.015625)"/>
       </defs>
       <use xlink:href="#DejaVuSans-30"/>
      </g>
     </g>
    </g>
    <g id="xtick_2">
     <g id="line2d_2">
      <g>
       <use xlink:href="#m6df3b8cb0f" x="138.828632" y="307.584" style="stroke: #000000; stroke-width: 0.8"/>
      </g>
     </g>
     <g id="text_2">
      <!-- 200 -->
      <g transform="translate(129.284882 322.182437)scale(0.1 -0.1)">
       <defs>
        <path id="DejaVuSans-32" d="M 1228 531 
L 3431 531 
L 3431 0 
L 469 0 
L 469 531 
Q 828 903 1448 1529 
Q 2069 2156 2228 2338 
Q 2531 2678 2651 2914 
Q 2772 3150 2772 3378 
Q 2772 3750 2511 3984 
Q 2250 4219 1831 4219 
Q 1534 4219 1204 4116 
Q 875 4013 500 3803 
L 500 4441 
Q 881 4594 1212 4672 
Q 1544 4750 1819 4750 
Q 2544 4750 2975 4387 
Q 3406 4025 3406 3419 
Q 3406 3131 3298 2873 
Q 3191 2616 2906 2266 
Q 2828 2175 2409 1742 
Q 1991 1309 1228 531 
z
" transform="scale(0.015625)"/>
       </defs>
       <use xlink:href="#DejaVuSans-32"/>
       <use xlink:href="#DejaVuSans-30" x="63.623047"/>
       <use xlink:href="#DejaVuSans-30" x="127.246094"/>
      </g>
     </g>
    </g>
    <g id="xtick_3">
     <g id="line2d_3">
      <g>
       <use xlink:href="#m6df3b8cb0f" x="203.824537" y="307.584" style="stroke: #000000; stroke-width: 0.8"/>
      </g>
     </g>
     <g id="text_3">
      <!-- 400 -->
      <g transform="translate(194.280787 322.182437)scale(0.1 -0.1)">
       <defs>
        <path id="DejaVuSans-34" d="M 2419 4116 
L 825 1625 
L 2419 1625 
L 2419 4116 
z
M 2253 4666 
L 3047 4666 
L 3047 1625 
L 3713 1625 
L 3713 1100 
L 3047 1100 
L 3047 0 
L 2419 0 
L 2419 1100 
L 313 1100 
L 313 1709 
L 2253 4666 
z
" transform="scale(0.015625)"/>
       </defs>
       <use xlink:href="#DejaVuSans-34"/>
       <use xlink:href="#DejaVuSans-30" x="63.623047"/>
       <use xlink:href="#DejaVuSans-30" x="127.246094"/>
      </g>
     </g>
    </g>
    <g id="xtick_4">
     <g id="line2d_4">
      <g>
       <use xlink:href="#m6df3b8cb0f" x="268.820442" y="307.584" style="stroke: #000000; stroke-width: 0.8"/>
      </g>
     </g>
     <g id="text_4">
      <!-- 600 -->
      <g transform="translate(259.276692 322.182437)scale(0.1 -0.1)">
       <defs>
        <path id="DejaVuSans-36" d="M 2113 2584 
Q 1688 2584 1439 2293 
Q 1191 2003 1191 1497 
Q 1191 994 1439 701 
Q 1688 409 2113 409 
Q 2538 409 2786 701 
Q 3034 994 3034 1497 
Q 3034 2003 2786 2293 
Q 2538 2584 2113 2584 
z
M 3366 4563 
L 3366 3988 
Q 3128 4100 2886 4159 
Q 2644 4219 2406 4219 
Q 1781 4219 1451 3797 
Q 1122 3375 1075 2522 
Q 1259 2794 1537 2939 
Q 1816 3084 2150 3084 
Q 2853 3084 3261 2657 
Q 3669 2231 3669 1497 
Q 3669 778 3244 343 
Q 2819 -91 2113 -91 
Q 1303 -91 875 529 
Q 447 1150 447 2328 
Q 447 3434 972 4092 
Q 1497 4750 2381 4750 
Q 2619 4750 2861 4703 
Q 3103 4656 3366 4563 
z
" transform="scale(0.015625)"/>
       </defs>
       <use xlink:href="#DejaVuSans-36"/>
       <use xlink:href="#DejaVuSans-30" x="63.623047"/>
       <use xlink:href="#DejaVuSans-30" x="127.246094"/>
      </g>
     </g>
    </g>
    <g id="xtick_5">
     <g id="line2d_5">
      <g>
       <use xlink:href="#m6df3b8cb0f" x="333.816347" y="307.584" style="stroke: #000000; stroke-width: 0.8"/>
      </g>
     </g>
     <g id="text_5">
      <!-- 800 -->
      <g transform="translate(324.272597 322.182437)scale(0.1 -0.1)">
       <defs>
        <path id="DejaVuSans-38" d="M 2034 2216 
Q 1584 2216 1326 1975 
Q 1069 1734 1069 1313 
Q 1069 891 1326 650 
Q 1584 409 2034 409 
Q 2484 409 2743 651 
Q 3003 894 3003 1313 
Q 3003 1734 2745 1975 
Q 2488 2216 2034 2216 
z
M 1403 2484 
Q 997 2584 770 2862 
Q 544 3141 544 3541 
Q 544 4100 942 4425 
Q 1341 4750 2034 4750 
Q 2731 4750 3128 4425 
Q 3525 4100 3525 3541 
Q 3525 3141 3298 2862 
Q 3072 2584 2669 2484 
Q 3125 2378 3379 2068 
Q 3634 1759 3634 1313 
Q 3634 634 3220 271 
Q 2806 -91 2034 -91 
Q 1263 -91 848 271 
Q 434 634 434 1313 
Q 434 1759 690 2068 
Q 947 2378 1403 2484 
z
M 1172 3481 
Q 1172 3119 1398 2916 
Q 1625 2713 2034 2713 
Q 2441 2713 2670 2916 
Q 2900 3119 2900 3481 
Q 2900 3844 2670 4047 
Q 2441 4250 2034 4250 
Q 1625 4250 1398 4047 
Q 1172 3844 1172 3481 
z
" transform="scale(0.015625)"/>
       </defs>
       <use xlink:href="#DejaVuSans-38"/>
       <use xlink:href="#DejaVuSans-30" x="63.623047"/>
       <use xlink:href="#DejaVuSans-30" x="127.246094"/>
      </g>
     </g>
    </g>
    <g id="xtick_6">
     <g id="line2d_6">
      <g>
       <use xlink:href="#m6df3b8cb0f" x="398.812252" y="307.584" style="stroke: #000000; stroke-width: 0.8"/>
      </g>
     </g>
     <g id="text_6">
      <!-- 1000 -->
      <g transform="translate(386.087252 322.182437)scale(0.1 -0.1)">
       <defs>
        <path id="DejaVuSans-31" d="M 794 531 
L 1825 531 
L 1825 4091 
L 703 3866 
L 703 4441 
L 1819 4666 
L 2450 4666 
L 2450 531 
L 3481 531 
L 3481 0 
L 794 0 
L 794 531 
z
" transform="scale(0.015625)"/>
       </defs>
       <use xlink:href="#DejaVuSans-31"/>
       <use xlink:href="#DejaVuSans-30" x="63.623047"/>
       <use xlink:href="#DejaVuSans-30" x="127.246094"/>
       <use xlink:href="#DejaVuSans-30" x="190.869141"/>
      </g>
     </g>
    </g>
    <g id="text_7">
     <!-- epoch -->
     <g transform="translate(220.931875 335.860562)scale(0.1 -0.1)">
      <defs>
       <path id="DejaVuSans-65" d="M 3597 1894 
L 3597 1613 
L 953 1613 
Q 991 1019 1311 708 
Q 1631 397 2203 397 
Q 2534 397 2845 478 
Q 3156 559 3463 722 
L 3463 178 
Q 3153 47 2828 -22 
Q 2503 -91 2169 -91 
Q 1331 -91 842 396 
Q 353 884 353 1716 
Q 353 2575 817 3079 
Q 1281 3584 2069 3584 
Q 2775 3584 3186 3129 
Q 3597 2675 3597 1894 
z
M 3022 2063 
Q 3016 2534 2758 2815 
Q 2500 3097 2075 3097 
Q 1594 3097 1305 2825 
Q 1016 2553 972 2059 
L 3022 2063 
z
" transform="scale(0.015625)"/>
       <path id="DejaVuSans-70" d="M 1159 525 
L 1159 -1331 
L 581 -1331 
L 581 3500 
L 1159 3500 
L 1159 2969 
Q 1341 3281 1617 3432 
Q 1894 3584 2278 3584 
Q 2916 3584 3314 3078 
Q 3713 2572 3713 1747 
Q 3713 922 3314 415 
Q 2916 -91 2278 -91 
Q 1894 -91 1617 61 
Q 1341 213 1159 525 
z
M 3116 1747 
Q 3116 2381 2855 2742 
Q 2594 3103 2138 3103 
Q 1681 3103 1420 2742 
Q 1159 2381 1159 1747 
Q 1159 1113 1420 752 
Q 1681 391 2138 391 
Q 2594 391 2855 752 
Q 3116 1113 3116 1747 
z
" transform="scale(0.015625)"/>
       <path id="DejaVuSans-6f" d="M 1959 3097 
Q 1497 3097 1228 2736 
Q 959 2375 959 1747 
Q 959 1119 1226 758 
Q 1494 397 1959 397 
Q 2419 397 2687 759 
Q 2956 1122 2956 1747 
Q 2956 2369 2687 2733 
Q 2419 3097 1959 3097 
z
M 1959 3584 
Q 2709 3584 3137 3096 
Q 3566 2609 3566 1747 
Q 3566 888 3137 398 
Q 2709 -91 1959 -91 
Q 1206 -91 779 398 
Q 353 888 353 1747 
Q 353 2609 779 3096 
Q 1206 3584 1959 3584 
z
" transform="scale(0.015625)"/>
       <path id="DejaVuSans-63" d="M 3122 3366 
L 3122 2828 
Q 2878 2963 2633 3030 
Q 2388 3097 2138 3097 
Q 1578 3097 1268 2742 
Q 959 2388 959 1747 
Q 959 1106 1268 751 
Q 1578 397 2138 397 
Q 2388 397 2633 464 
Q 2878 531 3122 666 
L 3122 134 
Q 2881 22 2623 -34 
Q 2366 -91 2075 -91 
Q 1284 -91 818 406 
Q 353 903 353 1747 
Q 353 2603 823 3093 
Q 1294 3584 2113 3584 
Q 2378 3584 2631 3529 
Q 2884 3475 3122 3366 
z
" transform="scale(0.015625)"/>
       <path id="DejaVuSans-68" d="M 3513 2113 
L 3513 0 
L 2938 0 
L 2938 2094 
Q 2938 2591 2744 2837 
Q 2550 3084 2163 3084 
Q 1697 3084 1428 2787 
Q 1159 2491 1159 1978 
L 1159 0 
L 581 0 
L 581 4863 
L 1159 4863 
L 1159 2956 
Q 1366 3272 1645 3428 
Q 1925 3584 2291 3584 
Q 2894 3584 3203 3211 
Q 3513 2838 3513 2113 
z
" transform="scale(0.015625)"/>
      </defs>
      <use xlink:href="#DejaVuSans-65"/>
      <use xlink:href="#DejaVuSans-70" x="61.523438"/>
      <use xlink:href="#DejaVuSans-6f" x="125"/>
      <use xlink:href="#DejaVuSans-63" x="186.181641"/>
      <use xlink:href="#DejaVuSans-68" x="241.162109"/>
     </g>
    </g>
   </g>
   <g id="matplotlib.axis_2">
    <g id="ytick_1">
     <g id="line2d_7">
      <defs>
       <path id="m383fdd9d91" d="M 0 0 
L -3.5 0 
" style="stroke: #000000; stroke-width: 0.8"/>
      </defs>
      <g>
       <use xlink:href="#m383fdd9d91" x="57.6" y="272.18749" style="stroke: #000000; stroke-width: 0.8"/>
      </g>
     </g>
     <g id="text_8">
      <!-- 8 -->
      <g transform="translate(44.2375 275.986709)scale(0.1 -0.1)">
       <use xlink:href="#DejaVuSans-38"/>
      </g>
     </g>
    </g>
    <g id="ytick_2">
     <g id="line2d_8">
      <g>
       <use xlink:href="#m383fdd9d91" x="57.6" y="233.864112" style="stroke: #000000; stroke-width: 0.8"/>
      </g>
     </g>
     <g id="text_9">
      <!-- 10 -->
      <g transform="translate(37.875 237.663331)scale(0.1 -0.1)">
       <use xlink:href="#DejaVuSans-31"/>
       <use xlink:href="#DejaVuSans-30" x="63.623047"/>
      </g>
     </g>
    </g>
    <g id="ytick_3">
     <g id="line2d_9">
      <g>
       <use xlink:href="#m383fdd9d91" x="57.6" y="195.540733" style="stroke: #000000; stroke-width: 0.8"/>
      </g>
     </g>
     <g id="text_10">
      <!-- 12 -->
      <g transform="translate(37.875 199.339952)scale(0.1 -0.1)">
       <use xlink:href="#DejaVuSans-31"/>
       <use xlink:href="#DejaVuSans-32" x="63.623047"/>
      </g>
     </g>
    </g>
    <g id="ytick_4">
     <g id="line2d_10">
      <g>
       <use xlink:href="#m383fdd9d91" x="57.6" y="157.217355" style="stroke: #000000; stroke-width: 0.8"/>
      </g>
     </g>
     <g id="text_11">
      <!-- 14 -->
      <g transform="translate(37.875 161.016573)scale(0.1 -0.1)">
       <use xlink:href="#DejaVuSans-31"/>
       <use xlink:href="#DejaVuSans-34" x="63.623047"/>
      </g>
     </g>
    </g>
    <g id="ytick_5">
     <g id="line2d_11">
      <g>
       <use xlink:href="#m383fdd9d91" x="57.6" y="118.893976" style="stroke: #000000; stroke-width: 0.8"/>
      </g>
     </g>
     <g id="text_12">
      <!-- 16 -->
      <g transform="translate(37.875 122.693195)scale(0.1 -0.1)">
       <use xlink:href="#DejaVuSans-31"/>
       <use xlink:href="#DejaVuSans-36" x="63.623047"/>
      </g>
     </g>
    </g>
    <g id="ytick_6">
     <g id="line2d_12">
      <g>
       <use xlink:href="#m383fdd9d91" x="57.6" y="80.570597" style="stroke: #000000; stroke-width: 0.8"/>
      </g>
     </g>
     <g id="text_13">
      <!-- 18 -->
      <g transform="translate(37.875 84.369816)scale(0.1 -0.1)">
       <use xlink:href="#DejaVuSans-31"/>
       <use xlink:href="#DejaVuSans-38" x="63.623047"/>
      </g>
     </g>
    </g>
    <g id="ytick_7">
     <g id="line2d_13">
      <g>
       <use xlink:href="#m383fdd9d91" x="57.6" y="42.247219" style="stroke: #000000; stroke-width: 0.8"/>
      </g>
     </g>
     <g id="text_14">
      <!-- 20 -->
      <g transform="translate(37.875 46.046438)scale(0.1 -0.1)">
       <use xlink:href="#DejaVuSans-32"/>
       <use xlink:href="#DejaVuSans-30" x="63.623047"/>
      </g>
     </g>
    </g>
    <g id="text_15">
     <!-- average rate_eff -->
     <g transform="translate(31.517187 215.8405)rotate(-90)scale(0.1 -0.1)">
      <defs>
       <path id="DejaVuSans-61" d="M 2194 1759 
Q 1497 1759 1228 1600 
Q 959 1441 959 1056 
Q 959 750 1161 570 
Q 1363 391 1709 391 
Q 2188 391 2477 730 
Q 2766 1069 2766 1631 
L 2766 1759 
L 2194 1759 
z
M 3341 1997 
L 3341 0 
L 2766 0 
L 2766 531 
Q 2569 213 2275 61 
Q 1981 -91 1556 -91 
Q 1019 -91 701 211 
Q 384 513 384 1019 
Q 384 1609 779 1909 
Q 1175 2209 1959 2209 
L 2766 2209 
L 2766 2266 
Q 2766 2663 2505 2880 
Q 2244 3097 1772 3097 
Q 1472 3097 1187 3025 
Q 903 2953 641 2809 
L 641 3341 
Q 956 3463 1253 3523 
Q 1550 3584 1831 3584 
Q 2591 3584 2966 3190 
Q 3341 2797 3341 1997 
z
" transform="scale(0.015625)"/>
       <path id="DejaVuSans-76" d="M 191 3500 
L 800 3500 
L 1894 563 
L 2988 3500 
L 3597 3500 
L 2284 0 
L 1503 0 
L 191 3500 
z
" transform="scale(0.015625)"/>
       <path id="DejaVuSans-72" d="M 2631 2963 
Q 2534 3019 2420 3045 
Q 2306 3072 2169 3072 
Q 1681 3072 1420 2755 
Q 1159 2438 1159 1844 
L 1159 0 
L 581 0 
L 581 3500 
L 1159 3500 
L 1159 2956 
Q 1341 3275 1631 3429 
Q 1922 3584 2338 3584 
Q 2397 3584 2469 3576 
Q 2541 3569 2628 3553 
L 2631 2963 
z
" transform="scale(0.015625)"/>
       <path id="DejaVuSans-67" d="M 2906 1791 
Q 2906 2416 2648 2759 
Q 2391 3103 1925 3103 
Q 1463 3103 1205 2759 
Q 947 2416 947 1791 
Q 947 1169 1205 825 
Q 1463 481 1925 481 
Q 2391 481 2648 825 
Q 2906 1169 2906 1791 
z
M 3481 434 
Q 3481 -459 3084 -895 
Q 2688 -1331 1869 -1331 
Q 1566 -1331 1297 -1286 
Q 1028 -1241 775 -1147 
L 775 -588 
Q 1028 -725 1275 -790 
Q 1522 -856 1778 -856 
Q 2344 -856 2625 -561 
Q 2906 -266 2906 331 
L 2906 616 
Q 2728 306 2450 153 
Q 2172 0 1784 0 
Q 1141 0 747 490 
Q 353 981 353 1791 
Q 353 2603 747 3093 
Q 1141 3584 1784 3584 
Q 2172 3584 2450 3431 
Q 2728 3278 2906 2969 
L 2906 3500 
L 3481 3500 
L 3481 434 
z
" transform="scale(0.015625)"/>
       <path id="DejaVuSans-20" transform="scale(0.015625)"/>
       <path id="DejaVuSans-74" d="M 1172 4494 
L 1172 3500 
L 2356 3500 
L 2356 3053 
L 1172 3053 
L 1172 1153 
Q 1172 725 1289 603 
Q 1406 481 1766 481 
L 2356 481 
L 2356 0 
L 1766 0 
Q 1100 0 847 248 
Q 594 497 594 1153 
L 594 3053 
L 172 3053 
L 172 3500 
L 594 3500 
L 594 4494 
L 1172 4494 
z
" transform="scale(0.015625)"/>
       <path id="DejaVuSans-5f" d="M 3263 -1063 
L 3263 -1509 
L -63 -1509 
L -63 -1063 
L 3263 -1063 
z
" transform="scale(0.015625)"/>
       <path id="DejaVuSans-66" d="M 2375 4863 
L 2375 4384 
L 1825 4384 
Q 1516 4384 1395 4259 
Q 1275 4134 1275 3809 
L 1275 3500 
L 2222 3500 
L 2222 3053 
L 1275 3053 
L 1275 0 
L 697 0 
L 697 3053 
L 147 3053 
L 147 3500 
L 697 3500 
L 697 3744 
Q 697 4328 969 4595 
Q 1241 4863 1831 4863 
L 2375 4863 
z
" transform="scale(0.015625)"/>
      </defs>
      <use xlink:href="#DejaVuSans-61"/>
      <use xlink:href="#DejaVuSans-76" x="61.279297"/>
      <use xlink:href="#DejaVuSans-65" x="120.458984"/>
      <use xlink:href="#DejaVuSans-72" x="181.982422"/>
      <use xlink:href="#DejaVuSans-61" x="223.095703"/>
      <use xlink:href="#DejaVuSans-67" x="284.375"/>
      <use xlink:href="#DejaVuSans-65" x="347.851562"/>
      <use xlink:href="#DejaVuSans-20" x="409.375"/>
      <use xlink:href="#DejaVuSans-72" x="441.162109"/>
      <use xlink:href="#DejaVuSans-61" x="482.275391"/>
      <use xlink:href="#DejaVuSans-74" x="543.554688"/>
      <use xlink:href="#DejaVuSans-65" x="582.763672"/>
      <use xlink:href="#DejaVuSans-5f" x="644.287109"/>
      <use xlink:href="#DejaVuSans-65" x="694.287109"/>
      <use xlink:href="#DejaVuSans-66" x="755.810547"/>
      <use xlink:href="#DejaVuSans-66" x="791.015625"/>
     </g>
    </g>
   </g>
   <g id="line2d_14">
    <path d="M 73.832727 218.871358 
L 74.157707 295.488 
L 74.482686 201.822735 
L 74.807666 167.611802 
L 75.132645 191.589318 
L 75.457625 178.909691 
L 75.782604 230.685877 
L 76.107584 183.575098 
L 76.432563 208.794733 
L 76.757543 159.747376 
L 77.082523 216.513238 
L 77.407502 138.724597 
L 77.732482 106.04242 
L 78.057461 131.104603 
L 78.382441 222.56792 
L 78.70742 204.145384 
L 79.0324 274.42985 
L 79.357379 184.593037 
L 79.682359 193.949593 
L 80.007338 227.725509 
L 80.332318 223.919577 
L 80.657297 177.280217 
L 80.982277 189.910436 
L 81.307256 291.147595 
L 81.632236 217.908018 
L 81.957215 209.67368 
L 82.282195 233.797258 
L 82.607174 241.814061 
L 83.257133 124.3227 
L 83.582113 258.458143 
L 83.907093 241.295218 
L 84.232072 239.757559 
L 84.557052 227.866069 
L 84.882031 273.890119 
L 85.207011 167.219859 
L 85.85697 282.618611 
L 86.181949 261.071801 
L 86.506929 200.451115 
L 86.831908 196.426761 
L 87.156888 214.850973 
L 87.481867 254.399753 
L 88.131826 195.199594 
L 88.456806 242.904453 
L 88.781785 234.509225 
L 89.106765 96.888627 
L 89.431744 110.973965 
L 89.756724 196.098586 
L 90.081704 130.54713 
L 90.406683 128.092167 
L 90.731663 225.286472 
L 91.056642 129.637988 
L 91.381622 70.547247 
L 91.706601 233.569223 
L 92.031581 265.594137 
L 92.35656 248.07016 
L 92.68154 270.482913 
L 93.006519 268.212033 
L 93.331499 193.58835 
L 93.656478 241.826519 
L 93.981458 210.776483 
L 94.306437 206.084131 
L 94.631417 193.348347 
L 94.956396 172.572222 
L 95.281376 241.390067 
L 95.606355 202.462467 
L 95.931335 209.46807 
L 96.256314 235.995696 
L 96.581294 204.243165 
L 96.906274 251.922785 
L 97.231253 229.986847 
L 97.556233 248.425524 
L 97.881212 253.403102 
L 98.206192 196.231416 
L 98.531171 238.446962 
L 99.18113 255.826998 
L 99.50611 203.31324 
L 99.831089 227.206952 
L 100.156069 203.859108 
L 100.481048 167.534235 
L 100.806028 164.563841 
L 101.131007 238.943147 
L 101.455987 235.362767 
L 101.780966 236.982662 
L 102.105946 227.19006 
L 102.430925 239.295894 
L 102.755905 182.245801 
L 103.080885 240.262784 
L 103.405864 231.385469 
L 103.730844 214.617511 
L 104.055823 241.871405 
L 104.380803 234.134958 
L 104.705782 223.664596 
L 105.030762 200.867744 
L 105.355741 238.514801 
L 105.680721 241.592783 
L 106.0057 240.441369 
L 106.33068 242.040679 
L 107.305618 192.351456 
L 107.630598 240.746233 
L 107.955577 211.373858 
L 108.280557 195.666959 
L 108.605536 195.975935 
L 108.930516 223.869068 
L 109.255495 213.468374 
L 109.580475 231.740248 
L 109.905455 220.310456 
L 110.230434 220.650219 
L 110.880393 212.087172 
L 111.205373 216.78388 
L 111.530352 218.55297 
L 111.855332 233.046576 
L 112.180311 219.353109 
L 112.505291 226.871699 
L 112.83027 226.651613 
L 113.15525 235.108886 
L 113.480229 220.764895 
L 113.805209 218.877027 
L 114.130188 209.630396 
L 114.780147 233.366432 
L 115.105127 235.162069 
L 115.430106 215.037493 
L 115.755086 230.625652 
L 116.405045 197.964304 
L 116.730025 219.066741 
L 117.055004 209.880486 
L 117.379984 212.802713 
L 117.704963 203.958453 
L 118.029943 219.596657 
L 118.354922 223.870102 
L 118.679902 173.858205 
L 119.004881 224.640568 
L 119.329861 224.803876 
L 119.65484 222.567335 
L 119.97982 189.179649 
L 120.304799 222.240578 
L 120.629779 223.036243 
L 120.954758 220.494514 
L 121.279738 202.243391 
L 121.604717 229.536334 
L 122.254676 212.826848 
L 122.579656 211.893088 
L 122.904636 211.907686 
L 123.554595 226.342942 
L 123.879574 217.885624 
L 124.204554 218.794319 
L 124.529533 219.31133 
L 124.854513 206.951023 
L 125.179492 216.131749 
L 125.504472 211.089577 
L 125.829451 210.196886 
L 126.154431 212.620404 
L 126.47941 204.180885 
L 127.129369 227.979492 
L 127.454349 219.431215 
L 128.104308 208.25819 
L 128.429287 227.135182 
L 128.754267 219.531334 
L 129.079247 217.043049 
L 129.404226 224.90413 
L 130.379165 207.59972 
L 130.704144 216.181489 
L 131.029124 212.978648 
L 131.354103 220.447508 
L 131.679083 213.078676 
L 132.004062 219.079347 
L 132.329042 202.522315 
L 132.654021 207.054229 
L 132.979001 205.053077 
L 133.30398 209.292599 
L 133.62896 217.525462 
L 133.953939 215.668238 
L 134.278919 205.089056 
L 134.603898 207.175566 
L 134.928878 215.729972 
L 135.253857 211.924104 
L 135.578837 212.310191 
L 135.903817 210.088872 
L 136.228796 204.416836 
L 136.553776 207.359628 
L 136.878755 219.400315 
L 137.203735 210.746161 
L 137.528714 210.304396 
L 137.853694 209.311865 
L 138.178673 210.305114 
L 138.503653 208.534812 
L 138.828632 213.039996 
L 139.153612 214.141676 
L 139.478591 210.644454 
L 139.803571 213.948268 
L 140.12855 213.667934 
L 140.45353 214.670841 
L 140.778509 206.026619 
L 141.103489 214.732284 
L 141.428468 209.362199 
L 141.753448 213.078189 
L 142.078428 206.15987 
L 142.403407 216.466843 
L 142.728387 209.261714 
L 143.053366 206.952321 
L 143.378346 211.832841 
L 143.703325 208.591192 
L 144.028305 206.563221 
L 144.353284 206.075968 
L 144.678264 201.316923 
L 145.003243 204.612152 
L 145.328223 195.232842 
L 145.653202 204.846357 
L 145.978182 201.433466 
L 146.303161 201.919375 
L 146.95312 205.82027 
L 147.2781 201.953126 
L 147.603079 201.950105 
L 147.928059 201.05514 
L 148.253038 202.019441 
L 148.578018 204.266329 
L 149.227977 200.436016 
L 149.552957 191.052193 
L 149.877936 202.625544 
L 150.202916 203.312698 
L 150.527895 202.990795 
L 150.852875 196.283316 
L 151.177854 196.689388 
L 151.502834 200.437603 
L 151.827813 193.744147 
L 152.152793 197.728993 
L 152.477772 198.244305 
L 152.802752 192.729524 
L 153.127731 196.036499 
L 153.452711 195.613148 
L 153.77769 191.548383 
L 154.10267 190.337666 
L 154.427649 188.552503 
L 154.752629 193.001648 
L 155.077609 193.067755 
L 155.402588 188.094884 
L 155.727568 188.030522 
L 156.052547 188.426249 
L 156.377527 187.734026 
L 156.702506 188.546306 
L 157.027486 183.838223 
L 157.352465 189.196238 
L 157.677445 189.815926 
L 158.002424 185.443643 
L 158.327404 185.325896 
L 158.652383 184.426178 
L 158.977363 180.598404 
L 159.302342 186.226492 
L 159.627322 181.68979 
L 159.952301 183.94769 
L 160.277281 184.826616 
L 160.92724 183.322562 
L 161.252219 181.323323 
L 161.577199 180.166316 
L 161.902179 180.307776 
L 162.552138 173.512461 
L 162.877117 179.732939 
L 163.202097 175.753563 
L 163.527076 174.491969 
L 163.852056 178.16126 
L 164.177035 175.50167 
L 164.502015 168.753309 
L 164.826994 176.356645 
L 165.151974 171.818821 
L 165.476953 170.991719 
L 165.801933 168.834483 
L 166.126912 173.970204 
L 166.451892 169.616763 
L 167.101851 176.540802 
L 167.42683 173.576514 
L 167.75181 174.174153 
L 168.07679 173.508634 
L 168.401769 171.864857 
L 168.726749 169.131366 
L 169.051728 167.886965 
L 169.376708 168.651841 
L 169.701687 168.361819 
L 170.026667 167.499531 
L 170.351646 164.507808 
L 170.676626 166.737548 
L 171.001605 167.891222 
L 171.326585 162.225865 
L 171.651564 161.780245 
L 171.976544 160.492116 
L 172.626503 168.058002 
L 172.951482 161.163002 
L 173.276462 161.798079 
L 173.601441 164.221353 
L 173.926421 160.482345 
L 174.57638 158.534125 
L 175.226339 154.246907 
L 175.551319 156.383746 
L 175.876298 156.523716 
L 176.201278 154.771826 
L 176.526257 155.339655 
L 176.851237 154.082629 
L 177.176216 147.941302 
L 177.501196 144.890877 
L 177.826175 148.821438 
L 178.151155 149.544844 
L 178.476134 144.537966 
L 178.801114 144.456371 
L 179.126093 143.739591 
L 179.451073 143.499537 
L 179.776052 142.562405 
L 180.101032 139.90225 
L 180.426011 138.927272 
L 180.750991 142.404276 
L 181.075971 139.434242 
L 181.40095 139.995971 
L 181.72593 134.997727 
L 182.375889 131.878857 
L 182.700868 131.110111 
L 183.025848 127.830565 
L 183.350827 131.121592 
L 184.000786 127.932917 
L 184.325766 128.256165 
L 184.650745 127.740022 
L 184.975725 122.326905 
L 185.300704 123.972692 
L 185.625684 121.41996 
L 185.950663 120.258035 
L 186.275643 123.76521 
L 186.925602 116.259556 
L 187.250581 121.007254 
L 187.900541 113.08843 
L 188.5505 112.42296 
L 189.200459 116.507779 
L 189.525438 109.891601 
L 189.850418 111.828644 
L 190.175397 111.008618 
L 190.825356 107.981888 
L 191.150336 104.644186 
L 191.475315 103.951197 
L 191.800295 101.319119 
L 192.125274 103.377684 
L 192.450254 102.913856 
L 192.775233 100.538669 
L 193.100213 100.085917 
L 193.425192 103.951207 
L 193.750172 97.659973 
L 194.075152 97.877982 
L 194.400131 102.85962 
L 194.725111 98.180661 
L 195.05009 98.927017 
L 195.37507 97.56222 
L 195.700049 92.384045 
L 196.025029 93.836103 
L 196.350008 94.081729 
L 196.674988 93.175601 
L 196.999967 94.269903 
L 197.324947 91.762524 
L 197.649926 91.84938 
L 197.974906 91.629061 
L 198.949844 87.632703 
L 199.274824 88.123386 
L 199.599803 86.380005 
L 199.924783 86.724293 
L 200.249762 84.897075 
L 200.574742 85.539253 
L 200.899722 84.047112 
L 201.224701 81.050746 
L 201.549681 81.928734 
L 201.87466 81.670559 
L 202.19964 81.997651 
L 202.524619 81.819764 
L 202.849599 83.937931 
L 203.174578 81.959049 
L 203.499558 84.159377 
L 204.149517 84.34651 
L 204.474496 82.069532 
L 204.799476 82.073408 
L 205.124455 81.495142 
L 205.449435 78.093568 
L 205.774414 80.443525 
L 206.099394 79.958604 
L 206.424373 79.872292 
L 206.749353 78.325867 
L 207.074333 78.872886 
L 207.399312 76.3392 
L 207.724292 76.039192 
L 208.049271 73.846258 
L 208.374251 75.949947 
L 208.69923 74.865451 
L 209.02421 75.72897 
L 209.674169 74.734366 
L 209.999148 76.567448 
L 210.324128 76.098133 
L 210.649107 74.921322 
L 210.974087 75.237204 
L 211.299066 72.944269 
L 211.624046 72.729618 
L 211.949025 72.939969 
L 212.274005 73.298386 
L 212.598984 72.473541 
L 212.923964 73.254403 
L 213.248943 71.920221 
L 213.573923 72.874475 
L 213.898903 74.437883 
L 214.223882 74.020809 
L 214.548862 73.244567 
L 214.873841 71.661051 
L 215.198821 70.995069 
L 215.5238 71.090192 
L 215.84878 71.426873 
L 216.173759 70.62154 
L 216.498739 70.29572 
L 216.823718 69.288109 
L 217.148698 68.776323 
L 217.798657 68.574742 
L 218.123636 67.613459 
L 218.448616 69.206634 
L 218.773595 67.547532 
L 219.098575 68.601356 
L 219.423554 67.986909 
L 219.748534 67.684599 
L 220.073514 68.362466 
L 220.398493 66.776014 
L 220.723473 66.733649 
L 221.048452 67.654747 
L 221.698411 67.463908 
L 222.023391 65.546355 
L 222.34837 65.393826 
L 222.67335 64.990819 
L 222.998329 64.950332 
L 223.323309 65.445501 
L 223.648288 64.282636 
L 223.973268 65.946363 
L 224.298247 65.266798 
L 224.623227 65.693574 
L 224.948206 65.233007 
L 225.273186 65.584079 
L 225.598165 65.38668 
L 225.923145 65.622001 
L 226.248124 66.138801 
L 226.573104 65.059659 
L 226.898084 65.83234 
L 227.548043 63.410344 
L 227.873022 63.366361 
L 228.198002 63.652035 
L 228.522981 62.886573 
L 228.847961 62.535679 
L 229.17294 62.969734 
L 229.49792 61.725967 
L 229.822899 63.113763 
L 230.472858 62.136629 
L 230.797838 61.058375 
L 231.122817 62.378437 
L 231.772776 61.831067 
L 232.097756 61.814415 
L 232.422735 62.880557 
L 233.397674 61.906965 
L 233.722654 61.616431 
L 234.047633 62.134564 
L 234.372613 61.100605 
L 234.697592 61.276636 
L 235.347551 59.873862 
L 235.672531 59.750326 
L 235.99751 60.118287 
L 236.32249 60.084133 
L 236.647469 60.435829 
L 236.972449 59.846783 
L 237.297428 60.119143 
L 237.622408 59.281606 
L 237.947387 59.370682 
L 238.272367 59.215279 
L 238.922326 59.5 
L 239.572285 58.23805 
L 240.222244 59.86022 
L 240.547224 59.3334 
L 240.872203 60.485749 
L 241.197183 60.297478 
L 241.522162 60.800382 
L 241.847142 60.270926 
L 242.172121 60.292446 
L 242.497101 59.709108 
L 243.472039 58.785543 
L 243.797019 57.640183 
L 244.121998 58.64337 
L 244.771957 58.081489 
L 245.096937 57.478982 
L 245.746896 58.937821 
L 246.071876 58.544865 
L 246.396855 58.667159 
L 246.721835 58.567234 
L 247.046814 58.699787 
L 247.696773 58.504774 
L 248.021753 59.081291 
L 248.346732 59.242524 
L 248.671712 59.186721 
L 248.996691 59.585262 
L 249.321671 58.986959 
L 249.64665 59.173205 
L 249.97163 59.191168 
L 250.621589 58.681078 
L 250.946568 57.947268 
L 251.271548 58.531018 
L 251.596527 58.526493 
L 251.921507 57.533732 
L 252.246486 57.354112 
L 252.571466 56.768206 
L 252.896446 56.697112 
L 253.546405 56.83956 
L 253.871384 56.10433 
L 254.196364 56.887432 
L 254.521343 57.2404 
L 254.846323 56.790339 
L 255.496282 57.323156 
L 255.821261 57.13172 
L 256.146241 57.331602 
L 256.7962 57.155523 
L 257.446159 56.715862 
L 257.771138 56.621093 
L 258.096118 56.7604 
L 258.421097 56.422096 
L 258.746077 55.765592 
L 259.071057 55.916707 
L 259.396036 55.901364 
L 259.721016 55.446771 
L 260.045995 55.631063 
L 260.370975 56.269118 
L 260.695954 55.960824 
L 261.020934 56.489734 
L 261.995872 55.838155 
L 262.320852 56.019953 
L 262.645831 55.630159 
L 262.970811 54.922688 
L 263.29579 55.478715 
L 264.270729 55.388149 
L 264.595708 55.777242 
L 264.920688 55.979529 
L 265.570647 55.26459 
L 265.895627 55.418695 
L 266.220606 55.273732 
L 266.870565 56.216297 
L 267.195545 56.026455 
L 267.845504 55.38933 
L 268.170483 55.641209 
L 268.495463 55.42936 
L 269.145422 55.977456 
L 270.44534 55.510254 
L 270.770319 55.630706 
L 271.420278 56.26211 
L 271.745258 55.780766 
L 272.395217 55.485496 
L 272.720197 55.154918 
L 273.045176 54.996777 
L 273.370156 55.57385 
L 273.695135 54.749733 
L 274.020115 55.370728 
L 274.345094 54.992289 
L 274.670074 54.866124 
L 275.320033 55.14231 
L 275.645012 55.177595 
L 276.294971 55.518406 
L 277.26991 54.549134 
L 277.919869 54.259315 
L 278.244848 54.855185 
L 278.569828 54.439751 
L 278.894808 54.397542 
L 279.219787 54.696605 
L 279.544767 54.531193 
L 279.869746 54.506093 
L 280.194726 54.339997 
L 280.519705 54.49885 
L 280.844685 54.182439 
L 281.494644 54.371975 
L 281.819623 53.985274 
L 282.144603 54.015883 
L 282.469582 53.932148 
L 282.794562 54.332786 
L 283.119541 54.221622 
L 284.09448 54.489263 
L 284.419459 54.130529 
L 284.744439 54.093369 
L 285.394398 53.568 
L 286.044357 53.934686 
L 286.694316 53.601978 
L 287.019296 53.950024 
L 287.344275 54.121306 
L 287.669255 53.859859 
L 288.969173 53.881964 
L 289.294152 54.147005 
L 289.619132 54.10863 
L 289.944111 54.367364 
L 290.269091 54.449267 
L 290.59407 54.044557 
L 290.91905 54.00088 
L 291.244029 54.121291 
L 291.569009 54.051692 
L 291.893989 53.824534 
L 292.543948 53.689358 
L 292.868927 53.797286 
L 293.193907 53.713841 
L 293.518886 53.981184 
L 294.493825 54.158479 
L 294.818804 54.234109 
L 295.468763 54.23999 
L 296.118722 54.316347 
L 297.74362 54.002361 
L 298.0686 54.150424 
L 298.393579 53.877736 
L 299.043538 54.14537 
L 300.993415 54.303727 
L 301.643374 54.050196 
L 301.968354 54.29942 
L 302.293333 53.874971 
L 302.943292 54.13222 
L 303.268272 54.019934 
L 303.593251 54.044871 
L 304.56819 53.676432 
L 305.218149 53.720188 
L 305.543129 54.015879 
L 305.868108 57.373172 
L 306.193088 58.870335 
L 306.518067 59.390784 
L 306.843047 59.639658 
L 307.493006 59.713681 
L 308.467944 59.657072 
L 308.792924 59.767752 
L 309.117903 59.636673 
L 309.767862 59.815406 
L 310.092842 59.671097 
L 310.417821 59.794364 
L 310.742801 59.693698 
L 311.067781 59.755951 
L 311.39276 59.634232 
L 312.042719 59.778681 
L 312.367699 59.639171 
L 314.642555 59.8161 
L 314.967535 59.665826 
L 315.292514 59.833433 
L 315.617494 59.870279 
L 315.942473 59.633926 
L 316.267453 59.716157 
L 316.592432 59.679516 
L 317.242391 59.753775 
L 319.842228 59.659043 
L 320.492187 59.751946 
L 321.142146 59.654333 
L 321.467125 59.835021 
L 322.117084 59.609462 
L 322.767043 59.766044 
L 323.417002 59.69394 
L 323.741982 59.756734 
L 324.391941 59.631292 
L 325.0419 59.809463 
L 325.36688 59.661445 
L 328.616675 59.750121 
L 329.266634 59.71253 
L 330.241572 59.742221 
L 330.566552 59.865228 
L 331.541491 59.668847 
L 331.86647 59.717177 
L 332.19145 59.6317 
L 332.841409 59.746645 
L 333.491368 59.711445 
L 333.816347 59.749647 
L 334.141327 59.635235 
L 334.791286 59.709623 
L 335.116265 59.662119 
L 335.441245 59.789842 
L 335.766224 59.644313 
L 336.416183 59.799759 
L 336.741163 59.654308 
L 337.066143 59.636975 
L 337.391122 59.82923 
L 337.716102 59.719531 
L 338.041081 59.769678 
L 338.69104 59.675642 
L 339.01602 59.756238 
L 339.340999 59.614876 
L 339.665979 59.745883 
L 339.990958 59.633141 
L 340.315938 59.777503 
L 341.290876 59.741288 
L 342.265815 59.664622 
L 343.240753 59.815928 
L 343.890713 59.760303 
L 344.540672 59.663382 
L 345.190631 59.796318 
L 345.51561 59.641548 
L 345.84059 59.825261 
L 346.165569 59.678217 
L 346.815528 59.709236 
L 347.790467 59.678802 
L 352.34018 59.740859 
L 352.66516 59.619574 
L 352.990139 59.876615 
L 353.640098 59.693743 
L 354.940016 59.696901 
L 355.589975 59.629353 
L 355.914955 59.619255 
L 356.564914 59.764979 
L 357.539853 59.737322 
L 357.864832 59.695112 
L 358.189812 59.847989 
L 358.514791 59.728252 
L 358.839771 59.763179 
L 359.16475 59.658477 
L 359.48973 59.874473 
L 359.814709 59.645144 
L 360.464668 59.71006 
L 364.689402 59.765094 
L 365.014382 59.801578 
L 365.339361 59.596347 
L 365.664341 59.738569 
L 365.98932 59.725313 
L 366.3143 59.577901 
L 367.289238 59.787883 
L 367.614218 59.840297 
L 368.264177 59.635045 
L 368.589156 59.861289 
L 368.914136 59.620614 
L 370.214054 59.802341 
L 371.188993 59.629862 
L 371.513972 59.710665 
L 371.838952 59.643167 
L 372.163931 59.77099 
L 372.488911 59.655319 
L 372.81389 59.79745 
L 373.463849 59.64067 
L 374.113808 59.690989 
L 376.063686 59.742938 
L 376.713645 59.618527 
L 377.688583 59.733639 
L 378.988501 59.668977 
L 379.96344 59.674928 
L 380.288419 59.607754 
L 380.613399 59.721322 
L 380.938378 59.580329 
L 381.263358 59.735743 
L 381.588337 59.635754 
L 382.238296 59.700446 
L 383.863194 59.748196 
L 384.188174 59.854039 
L 384.513153 59.724838 
L 386.138051 59.800871 
L 386.78801 59.752649 
L 387.112989 59.573825 
L 387.437969 59.757779 
L 388.412907 59.688079 
L 388.737887 59.767999 
L 389.062867 59.649427 
L 390.037805 59.81268 
L 390.362785 59.702772 
L 390.687764 59.757846 
L 391.012744 59.674739 
L 391.337723 59.727572 
L 391.662703 59.600673 
L 391.987682 59.771703 
L 392.312662 59.6069 
L 392.637641 59.776364 
L 394.912498 59.711326 
L 395.237477 59.783363 
L 395.562457 59.670732 
L 398.487273 59.66609 
L 398.487273 59.66609 
" clip-path="url(#p4137ba931c)" style="fill: none; stroke: #1f77b4; stroke-width: 1.5; stroke-linecap: square"/>
   </g>
   <g id="patch_3">
    <path d="M 57.6 307.584 
L 57.6 41.472 
" style="fill: none; stroke: #000000; stroke-width: 0.8; stroke-linejoin: miter; stroke-linecap: square"/>
   </g>
   <g id="patch_4">
    <path d="M 414.72 307.584 
L 414.72 41.472 
" style="fill: none; stroke: #000000; stroke-width: 0.8; stroke-linejoin: miter; stroke-linecap: square"/>
   </g>
   <g id="patch_5">
    <path d="M 57.6 307.584 
L 414.72 307.584 
" style="fill: none; stroke: #000000; stroke-width: 0.8; stroke-linejoin: miter; stroke-linecap: square"/>
   </g>
   <g id="patch_6">
    <path d="M 57.6 41.472 
L 414.72 41.472 
" style="fill: none; stroke: #000000; stroke-width: 0.8; stroke-linejoin: miter; stroke-linecap: square"/>
   </g>
  </g>
 </g>
 <defs>
  <clipPath id="p4137ba931c">
   <rect x="57.6" y="41.472" width="357.12" height="266.112"/>
  </clipPath>
 </defs>
</svg>
