<?xml version="1.0" encoding="utf-8" standalone="no"?>
<!DOCTYPE svg PUBLIC "-//W3C//DTD SVG 1.1//EN"
  "http://www.w3.org/Graphics/SVG/1.1/DTD/svg11.dtd">
<svg xmlns:xlink="http://www.w3.org/1999/xlink" width="460.8pt" height="345.6pt" viewBox="0 0 460.8 345.6" xmlns="http://www.w3.org/2000/svg" version="1.1">
 <metadata>
  <rdf:RDF xmlns:dc="http://purl.org/dc/elements/1.1/" xmlns:cc="http://creativecommons.org/ns#" xmlns:rdf="http://www.w3.org/1999/02/22-rdf-syntax-ns#">
   <cc:Work>
    <dc:type rdf:resource="http://purl.org/dc/dcmitype/StillImage"/>
    <dc:date>2022-06-29T20:28:04.924155</dc:date>
    <dc:format>image/svg+xml</dc:format>
    <dc:creator>
     <cc:Agent>
      <dc:title>Matplotlib v3.5.1, https://matplotlib.org/</dc:title>
     </cc:Agent>
    </dc:creator>
   </cc:Work>
  </rdf:RDF>
 </metadata>
 <defs>
  <style type="text/css">*{stroke-linejoin: round; stroke-linecap: butt}</style>
 </defs>
 <g id="figure_1">
  <g id="patch_1">
   <path d="M 0 345.6 
L 460.8 345.6 
L 460.8 0 
L 0 0 
z
" style="fill: #ffffff"/>
  </g>
  <g id="axes_1">
   <g id="patch_2">
    <path d="M 57.6 307.584 
L 414.72 307.584 
L 414.72 41.472 
L 57.6 41.472 
z
" style="fill: #ffffff"/>
   </g>
   <g id="matplotlib.axis_1">
    <g id="xtick_1">
     <g id="line2d_1">
      <defs>
       <path id="m24ad154311" d="M 0 0 
L 0 3.5 
" style="stroke: #000000; stroke-width: 0.8"/>
      </defs>
      <g>
       <use xlink:href="#m24ad154311" x="73.832727" y="307.584" style="stroke: #000000; stroke-width: 0.8"/>
      </g>
     </g>
     <g id="text_1">
      <!-- 0 -->
      <g transform="translate(70.651477 322.182437)scale(0.1 -0.1)">
       <defs>
        <path id="DejaVuSans-30" d="M 2034 4250 
Q 1547 4250 1301 3770 
Q 1056 3291 1056 2328 
Q 1056 1369 1301 889 
Q 1547 409 2034 409 
Q 2525 409 2770 889 
Q 3016 1369 3016 2328 
Q 3016 3291 2770 3770 
Q 2525 4250 2034 4250 
z
M 2034 4750 
Q 2819 4750 3233 4129 
Q 3647 3509 3647 2328 
Q 3647 1150 3233 529 
Q 2819 -91 2034 -91 
Q 1250 -91 836 529 
Q 422 1150 422 2328 
Q 422 3509 836 4129 
Q 1250 4750 2034 4750 
z
" transform="scale(0.015625)"/>
       </defs>
       <use xlink:href="#DejaVuSans-30"/>
      </g>
     </g>
    </g>
    <g id="xtick_2">
     <g id="line2d_2">
      <g>
       <use xlink:href="#m24ad154311" x="138.828632" y="307.584" style="stroke: #000000; stroke-width: 0.8"/>
      </g>
     </g>
     <g id="text_2">
      <!-- 200 -->
      <g transform="translate(129.284882 322.182437)scale(0.1 -0.1)">
       <defs>
        <path id="DejaVuSans-32" d="M 1228 531 
L 3431 531 
L 3431 0 
L 469 0 
L 469 531 
Q 828 903 1448 1529 
Q 2069 2156 2228 2338 
Q 2531 2678 2651 2914 
Q 2772 3150 2772 3378 
Q 2772 3750 2511 3984 
Q 2250 4219 1831 4219 
Q 1534 4219 1204 4116 
Q 875 4013 500 3803 
L 500 4441 
Q 881 4594 1212 4672 
Q 1544 4750 1819 4750 
Q 2544 4750 2975 4387 
Q 3406 4025 3406 3419 
Q 3406 3131 3298 2873 
Q 3191 2616 2906 2266 
Q 2828 2175 2409 1742 
Q 1991 1309 1228 531 
z
" transform="scale(0.015625)"/>
       </defs>
       <use xlink:href="#DejaVuSans-32"/>
       <use xlink:href="#DejaVuSans-30" x="63.623047"/>
       <use xlink:href="#DejaVuSans-30" x="127.246094"/>
      </g>
     </g>
    </g>
    <g id="xtick_3">
     <g id="line2d_3">
      <g>
       <use xlink:href="#m24ad154311" x="203.824537" y="307.584" style="stroke: #000000; stroke-width: 0.8"/>
      </g>
     </g>
     <g id="text_3">
      <!-- 400 -->
      <g transform="translate(194.280787 322.182437)scale(0.1 -0.1)">
       <defs>
        <path id="DejaVuSans-34" d="M 2419 4116 
L 825 1625 
L 2419 1625 
L 2419 4116 
z
M 2253 4666 
L 3047 4666 
L 3047 1625 
L 3713 1625 
L 3713 1100 
L 3047 1100 
L 3047 0 
L 2419 0 
L 2419 1100 
L 313 1100 
L 313 1709 
L 2253 4666 
z
" transform="scale(0.015625)"/>
       </defs>
       <use xlink:href="#DejaVuSans-34"/>
       <use xlink:href="#DejaVuSans-30" x="63.623047"/>
       <use xlink:href="#DejaVuSans-30" x="127.246094"/>
      </g>
     </g>
    </g>
    <g id="xtick_4">
     <g id="line2d_4">
      <g>
       <use xlink:href="#m24ad154311" x="268.820442" y="307.584" style="stroke: #000000; stroke-width: 0.8"/>
      </g>
     </g>
     <g id="text_4">
      <!-- 600 -->
      <g transform="translate(259.276692 322.182437)scale(0.1 -0.1)">
       <defs>
        <path id="DejaVuSans-36" d="M 2113 2584 
Q 1688 2584 1439 2293 
Q 1191 2003 1191 1497 
Q 1191 994 1439 701 
Q 1688 409 2113 409 
Q 2538 409 2786 701 
Q 3034 994 3034 1497 
Q 3034 2003 2786 2293 
Q 2538 2584 2113 2584 
z
M 3366 4563 
L 3366 3988 
Q 3128 4100 2886 4159 
Q 2644 4219 2406 4219 
Q 1781 4219 1451 3797 
Q 1122 3375 1075 2522 
Q 1259 2794 1537 2939 
Q 1816 3084 2150 3084 
Q 2853 3084 3261 2657 
Q 3669 2231 3669 1497 
Q 3669 778 3244 343 
Q 2819 -91 2113 -91 
Q 1303 -91 875 529 
Q 447 1150 447 2328 
Q 447 3434 972 4092 
Q 1497 4750 2381 4750 
Q 2619 4750 2861 4703 
Q 3103 4656 3366 4563 
z
" transform="scale(0.015625)"/>
       </defs>
       <use xlink:href="#DejaVuSans-36"/>
       <use xlink:href="#DejaVuSans-30" x="63.623047"/>
       <use xlink:href="#DejaVuSans-30" x="127.246094"/>
      </g>
     </g>
    </g>
    <g id="xtick_5">
     <g id="line2d_5">
      <g>
       <use xlink:href="#m24ad154311" x="333.816347" y="307.584" style="stroke: #000000; stroke-width: 0.8"/>
      </g>
     </g>
     <g id="text_5">
      <!-- 800 -->
      <g transform="translate(324.272597 322.182437)scale(0.1 -0.1)">
       <defs>
        <path id="DejaVuSans-38" d="M 2034 2216 
Q 1584 2216 1326 1975 
Q 1069 1734 1069 1313 
Q 1069 891 1326 650 
Q 1584 409 2034 409 
Q 2484 409 2743 651 
Q 3003 894 3003 1313 
Q 3003 1734 2745 1975 
Q 2488 2216 2034 2216 
z
M 1403 2484 
Q 997 2584 770 2862 
Q 544 3141 544 3541 
Q 544 4100 942 4425 
Q 1341 4750 2034 4750 
Q 2731 4750 3128 4425 
Q 3525 4100 3525 3541 
Q 3525 3141 3298 2862 
Q 3072 2584 2669 2484 
Q 3125 2378 3379 2068 
Q 3634 1759 3634 1313 
Q 3634 634 3220 271 
Q 2806 -91 2034 -91 
Q 1263 -91 848 271 
Q 434 634 434 1313 
Q 434 1759 690 2068 
Q 947 2378 1403 2484 
z
M 1172 3481 
Q 1172 3119 1398 2916 
Q 1625 2713 2034 2713 
Q 2441 2713 2670 2916 
Q 2900 3119 2900 3481 
Q 2900 3844 2670 4047 
Q 2441 4250 2034 4250 
Q 1625 4250 1398 4047 
Q 1172 3844 1172 3481 
z
" transform="scale(0.015625)"/>
       </defs>
       <use xlink:href="#DejaVuSans-38"/>
       <use xlink:href="#DejaVuSans-30" x="63.623047"/>
       <use xlink:href="#DejaVuSans-30" x="127.246094"/>
      </g>
     </g>
    </g>
    <g id="xtick_6">
     <g id="line2d_6">
      <g>
       <use xlink:href="#m24ad154311" x="398.812252" y="307.584" style="stroke: #000000; stroke-width: 0.8"/>
      </g>
     </g>
     <g id="text_6">
      <!-- 1000 -->
      <g transform="translate(386.087252 322.182437)scale(0.1 -0.1)">
       <defs>
        <path id="DejaVuSans-31" d="M 794 531 
L 1825 531 
L 1825 4091 
L 703 3866 
L 703 4441 
L 1819 4666 
L 2450 4666 
L 2450 531 
L 3481 531 
L 3481 0 
L 794 0 
L 794 531 
z
" transform="scale(0.015625)"/>
       </defs>
       <use xlink:href="#DejaVuSans-31"/>
       <use xlink:href="#DejaVuSans-30" x="63.623047"/>
       <use xlink:href="#DejaVuSans-30" x="127.246094"/>
       <use xlink:href="#DejaVuSans-30" x="190.869141"/>
      </g>
     </g>
    </g>
    <g id="text_7">
     <!-- epoch -->
     <g transform="translate(220.931875 335.860562)scale(0.1 -0.1)">
      <defs>
       <path id="DejaVuSans-65" d="M 3597 1894 
L 3597 1613 
L 953 1613 
Q 991 1019 1311 708 
Q 1631 397 2203 397 
Q 2534 397 2845 478 
Q 3156 559 3463 722 
L 3463 178 
Q 3153 47 2828 -22 
Q 2503 -91 2169 -91 
Q 1331 -91 842 396 
Q 353 884 353 1716 
Q 353 2575 817 3079 
Q 1281 3584 2069 3584 
Q 2775 3584 3186 3129 
Q 3597 2675 3597 1894 
z
M 3022 2063 
Q 3016 2534 2758 2815 
Q 2500 3097 2075 3097 
Q 1594 3097 1305 2825 
Q 1016 2553 972 2059 
L 3022 2063 
z
" transform="scale(0.015625)"/>
       <path id="DejaVuSans-70" d="M 1159 525 
L 1159 -1331 
L 581 -1331 
L 581 3500 
L 1159 3500 
L 1159 2969 
Q 1341 3281 1617 3432 
Q 1894 3584 2278 3584 
Q 2916 3584 3314 3078 
Q 3713 2572 3713 1747 
Q 3713 922 3314 415 
Q 2916 -91 2278 -91 
Q 1894 -91 1617 61 
Q 1341 213 1159 525 
z
M 3116 1747 
Q 3116 2381 2855 2742 
Q 2594 3103 2138 3103 
Q 1681 3103 1420 2742 
Q 1159 2381 1159 1747 
Q 1159 1113 1420 752 
Q 1681 391 2138 391 
Q 2594 391 2855 752 
Q 3116 1113 3116 1747 
z
" transform="scale(0.015625)"/>
       <path id="DejaVuSans-6f" d="M 1959 3097 
Q 1497 3097 1228 2736 
Q 959 2375 959 1747 
Q 959 1119 1226 758 
Q 1494 397 1959 397 
Q 2419 397 2687 759 
Q 2956 1122 2956 1747 
Q 2956 2369 2687 2733 
Q 2419 3097 1959 3097 
z
M 1959 3584 
Q 2709 3584 3137 3096 
Q 3566 2609 3566 1747 
Q 3566 888 3137 398 
Q 2709 -91 1959 -91 
Q 1206 -91 779 398 
Q 353 888 353 1747 
Q 353 2609 779 3096 
Q 1206 3584 1959 3584 
z
" transform="scale(0.015625)"/>
       <path id="DejaVuSans-63" d="M 3122 3366 
L 3122 2828 
Q 2878 2963 2633 3030 
Q 2388 3097 2138 3097 
Q 1578 3097 1268 2742 
Q 959 2388 959 1747 
Q 959 1106 1268 751 
Q 1578 397 2138 397 
Q 2388 397 2633 464 
Q 2878 531 3122 666 
L 3122 134 
Q 2881 22 2623 -34 
Q 2366 -91 2075 -91 
Q 1284 -91 818 406 
Q 353 903 353 1747 
Q 353 2603 823 3093 
Q 1294 3584 2113 3584 
Q 2378 3584 2631 3529 
Q 2884 3475 3122 3366 
z
" transform="scale(0.015625)"/>
       <path id="DejaVuSans-68" d="M 3513 2113 
L 3513 0 
L 2938 0 
L 2938 2094 
Q 2938 2591 2744 2837 
Q 2550 3084 2163 3084 
Q 1697 3084 1428 2787 
Q 1159 2491 1159 1978 
L 1159 0 
L 581 0 
L 581 4863 
L 1159 4863 
L 1159 2956 
Q 1366 3272 1645 3428 
Q 1925 3584 2291 3584 
Q 2894 3584 3203 3211 
Q 3513 2838 3513 2113 
z
" transform="scale(0.015625)"/>
      </defs>
      <use xlink:href="#DejaVuSans-65"/>
      <use xlink:href="#DejaVuSans-70" x="61.523438"/>
      <use xlink:href="#DejaVuSans-6f" x="125"/>
      <use xlink:href="#DejaVuSans-63" x="186.181641"/>
      <use xlink:href="#DejaVuSans-68" x="241.162109"/>
     </g>
    </g>
   </g>
   <g id="matplotlib.axis_2">
    <g id="ytick_1">
     <g id="line2d_7">
      <defs>
       <path id="m3ed5cc4f06" d="M 0 0 
L -3.5 0 
" style="stroke: #000000; stroke-width: 0.8"/>
      </defs>
      <g>
       <use xlink:href="#m3ed5cc4f06" x="57.6" y="306.47508" style="stroke: #000000; stroke-width: 0.8"/>
      </g>
     </g>
     <g id="text_8">
      <!-- 0 -->
      <g transform="translate(44.2375 310.274299)scale(0.1 -0.1)">
       <use xlink:href="#DejaVuSans-30"/>
      </g>
     </g>
    </g>
    <g id="ytick_2">
     <g id="line2d_8">
      <g>
       <use xlink:href="#m3ed5cc4f06" x="57.6" y="247.699262" style="stroke: #000000; stroke-width: 0.8"/>
      </g>
     </g>
     <g id="text_9">
      <!-- 2 -->
      <g transform="translate(44.2375 251.498481)scale(0.1 -0.1)">
       <use xlink:href="#DejaVuSans-32"/>
      </g>
     </g>
    </g>
    <g id="ytick_3">
     <g id="line2d_9">
      <g>
       <use xlink:href="#m3ed5cc4f06" x="57.6" y="188.923444" style="stroke: #000000; stroke-width: 0.8"/>
      </g>
     </g>
     <g id="text_10">
      <!-- 4 -->
      <g transform="translate(44.2375 192.722663)scale(0.1 -0.1)">
       <use xlink:href="#DejaVuSans-34"/>
      </g>
     </g>
    </g>
    <g id="ytick_4">
     <g id="line2d_10">
      <g>
       <use xlink:href="#m3ed5cc4f06" x="57.6" y="130.147626" style="stroke: #000000; stroke-width: 0.8"/>
      </g>
     </g>
     <g id="text_11">
      <!-- 6 -->
      <g transform="translate(44.2375 133.946845)scale(0.1 -0.1)">
       <use xlink:href="#DejaVuSans-36"/>
      </g>
     </g>
    </g>
    <g id="ytick_5">
     <g id="line2d_11">
      <g>
       <use xlink:href="#m3ed5cc4f06" x="57.6" y="71.371808" style="stroke: #000000; stroke-width: 0.8"/>
      </g>
     </g>
     <g id="text_12">
      <!-- 8 -->
      <g transform="translate(44.2375 75.171027)scale(0.1 -0.1)">
       <use xlink:href="#DejaVuSans-38"/>
      </g>
     </g>
    </g>
    <g id="text_13">
     <!-- position error -->
     <g transform="translate(38.157812 208.024094)rotate(-90)scale(0.1 -0.1)">
      <defs>
       <path id="DejaVuSans-73" d="M 2834 3397 
L 2834 2853 
Q 2591 2978 2328 3040 
Q 2066 3103 1784 3103 
Q 1356 3103 1142 2972 
Q 928 2841 928 2578 
Q 928 2378 1081 2264 
Q 1234 2150 1697 2047 
L 1894 2003 
Q 2506 1872 2764 1633 
Q 3022 1394 3022 966 
Q 3022 478 2636 193 
Q 2250 -91 1575 -91 
Q 1294 -91 989 -36 
Q 684 19 347 128 
L 347 722 
Q 666 556 975 473 
Q 1284 391 1588 391 
Q 1994 391 2212 530 
Q 2431 669 2431 922 
Q 2431 1156 2273 1281 
Q 2116 1406 1581 1522 
L 1381 1569 
Q 847 1681 609 1914 
Q 372 2147 372 2553 
Q 372 3047 722 3315 
Q 1072 3584 1716 3584 
Q 2034 3584 2315 3537 
Q 2597 3491 2834 3397 
z
" transform="scale(0.015625)"/>
       <path id="DejaVuSans-69" d="M 603 3500 
L 1178 3500 
L 1178 0 
L 603 0 
L 603 3500 
z
M 603 4863 
L 1178 4863 
L 1178 4134 
L 603 4134 
L 603 4863 
z
" transform="scale(0.015625)"/>
       <path id="DejaVuSans-74" d="M 1172 4494 
L 1172 3500 
L 2356 3500 
L 2356 3053 
L 1172 3053 
L 1172 1153 
Q 1172 725 1289 603 
Q 1406 481 1766 481 
L 2356 481 
L 2356 0 
L 1766 0 
Q 1100 0 847 248 
Q 594 497 594 1153 
L 594 3053 
L 172 3053 
L 172 3500 
L 594 3500 
L 594 4494 
L 1172 4494 
z
" transform="scale(0.015625)"/>
       <path id="DejaVuSans-6e" d="M 3513 2113 
L 3513 0 
L 2938 0 
L 2938 2094 
Q 2938 2591 2744 2837 
Q 2550 3084 2163 3084 
Q 1697 3084 1428 2787 
Q 1159 2491 1159 1978 
L 1159 0 
L 581 0 
L 581 3500 
L 1159 3500 
L 1159 2956 
Q 1366 3272 1645 3428 
Q 1925 3584 2291 3584 
Q 2894 3584 3203 3211 
Q 3513 2838 3513 2113 
z
" transform="scale(0.015625)"/>
       <path id="DejaVuSans-20" transform="scale(0.015625)"/>
       <path id="DejaVuSans-72" d="M 2631 2963 
Q 2534 3019 2420 3045 
Q 2306 3072 2169 3072 
Q 1681 3072 1420 2755 
Q 1159 2438 1159 1844 
L 1159 0 
L 581 0 
L 581 3500 
L 1159 3500 
L 1159 2956 
Q 1341 3275 1631 3429 
Q 1922 3584 2338 3584 
Q 2397 3584 2469 3576 
Q 2541 3569 2628 3553 
L 2631 2963 
z
" transform="scale(0.015625)"/>
      </defs>
      <use xlink:href="#DejaVuSans-70"/>
      <use xlink:href="#DejaVuSans-6f" x="63.476562"/>
      <use xlink:href="#DejaVuSans-73" x="124.658203"/>
      <use xlink:href="#DejaVuSans-69" x="176.757812"/>
      <use xlink:href="#DejaVuSans-74" x="204.541016"/>
      <use xlink:href="#DejaVuSans-69" x="243.75"/>
      <use xlink:href="#DejaVuSans-6f" x="271.533203"/>
      <use xlink:href="#DejaVuSans-6e" x="332.714844"/>
      <use xlink:href="#DejaVuSans-20" x="396.09375"/>
      <use xlink:href="#DejaVuSans-65" x="427.880859"/>
      <use xlink:href="#DejaVuSans-72" x="489.404297"/>
      <use xlink:href="#DejaVuSans-72" x="528.767578"/>
      <use xlink:href="#DejaVuSans-6f" x="567.630859"/>
      <use xlink:href="#DejaVuSans-72" x="628.8125"/>
     </g>
    </g>
   </g>
   <g id="line2d_12">
    <path d="M 73.832727 82.121125 
L 74.157707 87.991361 
L 74.482686 106.525246 
L 74.807666 101.363866 
L 75.132645 53.568 
L 75.457625 99.126726 
L 75.782604 97.06552 
L 76.107584 62.250047 
L 76.432563 107.938682 
L 76.757543 110.352319 
L 77.082523 93.913779 
L 77.407502 96.312798 
L 77.732482 103.110876 
L 78.057461 138.447368 
L 78.382441 95.66012 
L 78.70742 95.291042 
L 79.357379 110.140704 
L 79.682359 88.549196 
L 80.007338 114.140893 
L 80.332318 119.420538 
L 80.657297 109.565224 
L 80.982277 123.025939 
L 81.307256 114.153319 
L 81.632236 110.758166 
L 81.957215 117.035616 
L 82.282195 138.362589 
L 82.607174 141.367711 
L 82.932154 114.363612 
L 83.582113 135.093937 
L 83.907093 120.647308 
L 84.557052 144.574645 
L 84.882031 159.237199 
L 85.207011 159.146702 
L 85.53199 125.708219 
L 85.85697 162.130997 
L 86.181949 123.945569 
L 86.506929 108.173141 
L 86.831908 154.167866 
L 87.156888 150.113498 
L 87.481867 148.427367 
L 87.806847 144.705064 
L 88.131826 159.648992 
L 88.781785 123.696598 
L 89.431744 163.178204 
L 89.756724 146.708308 
L 90.081704 143.778066 
L 90.731663 152.901027 
L 91.056642 135.452364 
L 91.381622 129.337353 
L 91.706601 184.968805 
L 92.031581 174.986699 
L 92.35656 187.291723 
L 93.006519 161.866628 
L 93.331499 161.439765 
L 93.656478 174.315684 
L 93.981458 173.019272 
L 94.306437 174.464132 
L 94.631417 189.289113 
L 94.956396 147.279923 
L 95.281376 192.812144 
L 95.931335 175.188269 
L 96.256314 211.165173 
L 96.581294 146.774054 
L 97.231253 198.749969 
L 97.556233 214.22326 
L 97.881212 211.321555 
L 98.206192 241.616532 
L 98.531171 217.839336 
L 98.856151 245.2285 
L 99.50611 204.396083 
L 99.831089 223.989165 
L 100.156069 229.330241 
L 100.481048 226.154923 
L 100.806028 199.577096 
L 101.131007 234.661844 
L 101.455987 236.164014 
L 101.780966 226.635985 
L 102.105946 238.794161 
L 102.430925 231.004364 
L 102.755905 241.989047 
L 103.080885 226.324765 
L 103.405864 240.738742 
L 103.730844 260.294752 
L 104.055823 229.523469 
L 104.380803 251.638367 
L 104.705782 223.385453 
L 105.030762 266.565818 
L 105.355741 229.315457 
L 105.680721 266.109582 
L 106.0057 271.570949 
L 106.33068 237.923608 
L 106.655659 253.749817 
L 106.980639 256.52155 
L 107.305618 248.536501 
L 107.630598 248.564478 
L 107.955577 262.859953 
L 108.280557 256.794571 
L 108.605536 241.387896 
L 108.930516 256.763189 
L 109.255495 256.468772 
L 109.580475 243.707478 
L 109.905455 257.776026 
L 110.230434 260.52804 
L 110.880393 272.612725 
L 111.205373 281.253947 
L 111.530352 260.812174 
L 112.180311 254.300423 
L 112.505291 274.800087 
L 112.83027 272.23507 
L 113.15525 267.18891 
L 113.480229 257.400978 
L 113.805209 274.876501 
L 114.130188 263.959228 
L 114.455168 273.262097 
L 114.780147 265.930521 
L 115.105127 251.788952 
L 115.430106 269.591625 
L 115.755086 278.53773 
L 116.080066 278.911069 
L 116.405045 263.083035 
L 116.730025 269.562976 
L 117.055004 252.664963 
L 117.379984 278.108889 
L 117.704963 278.33722 
L 118.029943 272.983968 
L 118.354922 257.12766 
L 118.679902 278.76945 
L 119.004881 279.208673 
L 119.329861 282.411793 
L 119.65484 291.338882 
L 119.97982 265.90317 
L 120.304799 291.42855 
L 120.629779 290.499438 
L 120.954758 275.355547 
L 121.279738 274.916971 
L 121.604717 284.176441 
L 121.929697 272.250659 
L 122.254676 286.155706 
L 122.579656 272.615019 
L 122.904636 266.773257 
L 123.229615 270.745122 
L 123.554595 288.324831 
L 123.879574 285.157595 
L 124.204554 288.738505 
L 124.529533 272.866964 
L 124.854513 277.976933 
L 125.179492 278.553006 
L 125.504472 291.14474 
L 125.829451 291.064351 
L 126.154431 287.938301 
L 126.47941 293.110697 
L 126.80439 291.412247 
L 127.129369 288.935834 
L 127.454349 279.542012 
L 127.779328 294.166143 
L 128.104308 279.574737 
L 128.429287 291.637405 
L 128.754267 285.596816 
L 129.079247 291.222601 
L 129.404226 276.616512 
L 129.729206 294.925936 
L 130.054185 288.628225 
L 130.379165 287.880026 
L 130.704144 290.930355 
L 131.029124 291.403471 
L 131.354103 294.174717 
L 131.679083 294.868482 
L 132.004062 288.746782 
L 132.329042 294.256563 
L 132.654021 294.444656 
L 132.979001 288.556043 
L 133.30398 294.846688 
L 133.953939 294.798609 
L 134.278919 288.607286 
L 134.603898 294.991022 
L 134.928878 294.927781 
L 135.253857 294.984391 
L 135.578837 294.810725 
L 135.903817 294.353013 
L 136.228796 294.505423 
L 136.553776 291.63501 
L 136.878755 291.946104 
L 137.203735 294.640346 
L 137.853694 294.859731 
L 138.178673 294.876984 
L 138.503653 294.544103 
L 138.828632 294.95458 
L 139.153612 291.947109 
L 139.478591 291.86921 
L 139.803571 295.000897 
L 140.12855 291.846151 
L 140.45353 295.118601 
L 140.778509 291.837508 
L 141.103489 294.983154 
L 141.753448 295.119102 
L 142.078428 294.70293 
L 142.403407 295.488 
L 142.728387 295.175871 
L 143.053366 291.953495 
L 143.378346 295.152439 
L 143.703325 295.146384 
L 144.028305 294.981693 
L 144.353284 295.118858 
L 144.678264 294.815136 
L 145.003243 295.104618 
L 145.328223 294.824728 
L 145.653202 295.065961 
L 145.978182 294.816295 
L 146.303161 295.007933 
L 146.628141 294.960874 
L 146.95312 295.082408 
L 147.2781 294.903554 
L 148.578018 295.057751 
L 149.227977 295.091381 
L 149.552957 294.709584 
L 149.877936 295.062657 
L 151.177854 294.894324 
L 151.502834 295.073805 
L 151.827813 294.818111 
L 152.152793 295.000209 
L 154.10267 294.686839 
L 155.077609 294.820575 
L 155.402588 294.710318 
L 156.052547 294.802348 
L 157.027486 294.637418 
L 157.677445 294.763648 
L 158.002424 294.574369 
L 158.977363 294.58328 
L 159.302342 294.717646 
L 159.627322 294.507796 
L 159.952301 294.653699 
L 160.92724 294.686644 
L 161.252219 294.492097 
L 161.902179 294.576096 
L 162.552138 294.349592 
L 162.877117 294.588846 
L 163.202097 294.456561 
L 164.177035 294.455769 
L 164.502015 294.328965 
L 165.151974 294.342446 
L 165.801933 294.32757 
L 166.126912 294.450939 
L 166.451892 294.316698 
L 166.776871 294.338814 
L 167.101851 294.50581 
L 168.07679 294.458101 
L 168.726749 294.327119 
L 169.376708 294.353774 
L 170.351646 294.231328 
L 170.676626 294.329744 
L 171.976544 294.122213 
L 172.626503 294.370693 
L 172.951482 294.245424 
L 173.601441 294.237514 
L 174.2514 294.13919 
L 174.57638 294.134182 
L 174.90136 293.988515 
L 175.551319 294.150825 
L 180.750991 293.676094 
L 181.40095 293.677469 
L 181.72593 293.5713 
L 182.700868 293.556132 
L 183.025848 293.470709 
L 183.675807 293.49039 
L 185.300704 293.227349 
L 186.275643 293.347682 
L 186.925602 293.293423 
L 187.250581 293.337613 
L 187.900541 293.104166 
L 188.22552 293.174178 
L 188.5505 293.054162 
L 188.875479 293.21624 
L 191.150336 292.988615 
L 191.475315 292.884732 
L 192.450254 292.966191 
L 192.775233 292.877147 
L 193.425192 293.00654 
L 194.075152 292.832552 
L 194.400131 292.945618 
L 195.700049 292.771793 
L 197.974906 292.767609 
L 200.574742 292.599626 
L 202.524619 292.563667 
L 203.499558 292.601906 
L 205.124455 292.542616 
L 205.449435 292.448103 
L 206.099394 292.511777 
L 207.724292 292.413289 
L 208.049271 292.34581 
L 208.69923 292.398087 
L 210.649107 292.395579 
L 212.923964 292.35023 
L 213.898903 292.383691 
L 230.797838 292.082669 
L 231.772776 292.105588 
L 238.272367 292.035845 
L 242.497101 292.050867 
L 247.046814 292.024534 
L 258.421097 291.970955 
L 260.045995 291.953029 
L 262.645831 291.950747 
L 264.595708 291.950569 
L 284.419459 291.911199 
L 296.443702 291.914964 
L 305.868108 291.998664 
L 307.493006 292.042511 
L 330.241572 292.046938 
L 367.939197 292.045802 
L 398.487273 292.048765 
L 398.487273 292.048765 
" clip-path="url(#p3af6f80653)" style="fill: none; stroke: #1f77b4; stroke-width: 1.5; stroke-linecap: square"/>
   </g>
   <g id="patch_3">
    <path d="M 57.6 307.584 
L 57.6 41.472 
" style="fill: none; stroke: #000000; stroke-width: 0.8; stroke-linejoin: miter; stroke-linecap: square"/>
   </g>
   <g id="patch_4">
    <path d="M 414.72 307.584 
L 414.72 41.472 
" style="fill: none; stroke: #000000; stroke-width: 0.8; stroke-linejoin: miter; stroke-linecap: square"/>
   </g>
   <g id="patch_5">
    <path d="M 57.6 307.584 
L 414.72 307.584 
" style="fill: none; stroke: #000000; stroke-width: 0.8; stroke-linejoin: miter; stroke-linecap: square"/>
   </g>
   <g id="patch_6">
    <path d="M 57.6 41.472 
L 414.72 41.472 
" style="fill: none; stroke: #000000; stroke-width: 0.8; stroke-linejoin: miter; stroke-linecap: square"/>
   </g>
  </g>
 </g>
 <defs>
  <clipPath id="p3af6f80653">
   <rect x="57.6" y="41.472" width="357.12" height="266.112"/>
  </clipPath>
 </defs>
</svg>
