<?xml version="1.0" encoding="utf-8" standalone="no"?>
<!DOCTYPE svg PUBLIC "-//W3C//DTD SVG 1.1//EN"
  "http://www.w3.org/Graphics/SVG/1.1/DTD/svg11.dtd">
<svg xmlns:xlink="http://www.w3.org/1999/xlink" width="460.8pt" height="345.6pt" viewBox="0 0 460.8 345.6" xmlns="http://www.w3.org/2000/svg" version="1.1">
 <metadata>
  <rdf:RDF xmlns:dc="http://purl.org/dc/elements/1.1/" xmlns:cc="http://creativecommons.org/ns#" xmlns:rdf="http://www.w3.org/1999/02/22-rdf-syntax-ns#">
   <cc:Work>
    <dc:type rdf:resource="http://purl.org/dc/dcmitype/StillImage"/>
    <dc:date>2022-06-29T20:28:04.744432</dc:date>
    <dc:format>image/svg+xml</dc:format>
    <dc:creator>
     <cc:Agent>
      <dc:title>Matplotlib v3.5.1, https://matplotlib.org/</dc:title>
     </cc:Agent>
    </dc:creator>
   </cc:Work>
  </rdf:RDF>
 </metadata>
 <defs>
  <style type="text/css">*{stroke-linejoin: round; stroke-linecap: butt}</style>
 </defs>
 <g id="figure_1">
  <g id="patch_1">
   <path d="M 0 345.6 
L 460.8 345.6 
L 460.8 0 
L 0 0 
z
" style="fill: #ffffff"/>
  </g>
  <g id="axes_1">
   <g id="patch_2">
    <path d="M 57.6 307.584 
L 414.72 307.584 
L 414.72 41.472 
L 57.6 41.472 
z
" style="fill: #ffffff"/>
   </g>
   <g id="matplotlib.axis_1">
    <g id="xtick_1">
     <g id="line2d_1">
      <defs>
       <path id="m8cb9eaeebd" d="M 0 0 
L 0 3.5 
" style="stroke: #000000; stroke-width: 0.8"/>
      </defs>
      <g>
       <use xlink:href="#m8cb9eaeebd" x="73.832727" y="307.584" style="stroke: #000000; stroke-width: 0.8"/>
      </g>
     </g>
     <g id="text_1">
      <!-- 0 -->
      <g transform="translate(70.651477 322.182437)scale(0.1 -0.1)">
       <defs>
        <path id="DejaVuSans-30" d="M 2034 4250 
Q 1547 4250 1301 3770 
Q 1056 3291 1056 2328 
Q 1056 1369 1301 889 
Q 1547 409 2034 409 
Q 2525 409 2770 889 
Q 3016 1369 3016 2328 
Q 3016 3291 2770 3770 
Q 2525 4250 2034 4250 
z
M 2034 4750 
Q 2819 4750 3233 4129 
Q 3647 3509 3647 2328 
Q 3647 1150 3233 529 
Q 2819 -91 2034 -91 
Q 1250 -91 836 529 
Q 422 1150 422 2328 
Q 422 3509 836 4129 
Q 1250 4750 2034 4750 
z
" transform="scale(0.015625)"/>
       </defs>
       <use xlink:href="#DejaVuSans-30"/>
      </g>
     </g>
    </g>
    <g id="xtick_2">
     <g id="line2d_2">
      <g>
       <use xlink:href="#m8cb9eaeebd" x="138.828632" y="307.584" style="stroke: #000000; stroke-width: 0.8"/>
      </g>
     </g>
     <g id="text_2">
      <!-- 200 -->
      <g transform="translate(129.284882 322.182437)scale(0.1 -0.1)">
       <defs>
        <path id="DejaVuSans-32" d="M 1228 531 
L 3431 531 
L 3431 0 
L 469 0 
L 469 531 
Q 828 903 1448 1529 
Q 2069 2156 2228 2338 
Q 2531 2678 2651 2914 
Q 2772 3150 2772 3378 
Q 2772 3750 2511 3984 
Q 2250 4219 1831 4219 
Q 1534 4219 1204 4116 
Q 875 4013 500 3803 
L 500 4441 
Q 881 4594 1212 4672 
Q 1544 4750 1819 4750 
Q 2544 4750 2975 4387 
Q 3406 4025 3406 3419 
Q 3406 3131 3298 2873 
Q 3191 2616 2906 2266 
Q 2828 2175 2409 1742 
Q 1991 1309 1228 531 
z
" transform="scale(0.015625)"/>
       </defs>
       <use xlink:href="#DejaVuSans-32"/>
       <use xlink:href="#DejaVuSans-30" x="63.623047"/>
       <use xlink:href="#DejaVuSans-30" x="127.246094"/>
      </g>
     </g>
    </g>
    <g id="xtick_3">
     <g id="line2d_3">
      <g>
       <use xlink:href="#m8cb9eaeebd" x="203.824537" y="307.584" style="stroke: #000000; stroke-width: 0.8"/>
      </g>
     </g>
     <g id="text_3">
      <!-- 400 -->
      <g transform="translate(194.280787 322.182437)scale(0.1 -0.1)">
       <defs>
        <path id="DejaVuSans-34" d="M 2419 4116 
L 825 1625 
L 2419 1625 
L 2419 4116 
z
M 2253 4666 
L 3047 4666 
L 3047 1625 
L 3713 1625 
L 3713 1100 
L 3047 1100 
L 3047 0 
L 2419 0 
L 2419 1100 
L 313 1100 
L 313 1709 
L 2253 4666 
z
" transform="scale(0.015625)"/>
       </defs>
       <use xlink:href="#DejaVuSans-34"/>
       <use xlink:href="#DejaVuSans-30" x="63.623047"/>
       <use xlink:href="#DejaVuSans-30" x="127.246094"/>
      </g>
     </g>
    </g>
    <g id="xtick_4">
     <g id="line2d_4">
      <g>
       <use xlink:href="#m8cb9eaeebd" x="268.820442" y="307.584" style="stroke: #000000; stroke-width: 0.8"/>
      </g>
     </g>
     <g id="text_4">
      <!-- 600 -->
      <g transform="translate(259.276692 322.182437)scale(0.1 -0.1)">
       <defs>
        <path id="DejaVuSans-36" d="M 2113 2584 
Q 1688 2584 1439 2293 
Q 1191 2003 1191 1497 
Q 1191 994 1439 701 
Q 1688 409 2113 409 
Q 2538 409 2786 701 
Q 3034 994 3034 1497 
Q 3034 2003 2786 2293 
Q 2538 2584 2113 2584 
z
M 3366 4563 
L 3366 3988 
Q 3128 4100 2886 4159 
Q 2644 4219 2406 4219 
Q 1781 4219 1451 3797 
Q 1122 3375 1075 2522 
Q 1259 2794 1537 2939 
Q 1816 3084 2150 3084 
Q 2853 3084 3261 2657 
Q 3669 2231 3669 1497 
Q 3669 778 3244 343 
Q 2819 -91 2113 -91 
Q 1303 -91 875 529 
Q 447 1150 447 2328 
Q 447 3434 972 4092 
Q 1497 4750 2381 4750 
Q 2619 4750 2861 4703 
Q 3103 4656 3366 4563 
z
" transform="scale(0.015625)"/>
       </defs>
       <use xlink:href="#DejaVuSans-36"/>
       <use xlink:href="#DejaVuSans-30" x="63.623047"/>
       <use xlink:href="#DejaVuSans-30" x="127.246094"/>
      </g>
     </g>
    </g>
    <g id="xtick_5">
     <g id="line2d_5">
      <g>
       <use xlink:href="#m8cb9eaeebd" x="333.816347" y="307.584" style="stroke: #000000; stroke-width: 0.8"/>
      </g>
     </g>
     <g id="text_5">
      <!-- 800 -->
      <g transform="translate(324.272597 322.182437)scale(0.1 -0.1)">
       <defs>
        <path id="DejaVuSans-38" d="M 2034 2216 
Q 1584 2216 1326 1975 
Q 1069 1734 1069 1313 
Q 1069 891 1326 650 
Q 1584 409 2034 409 
Q 2484 409 2743 651 
Q 3003 894 3003 1313 
Q 3003 1734 2745 1975 
Q 2488 2216 2034 2216 
z
M 1403 2484 
Q 997 2584 770 2862 
Q 544 3141 544 3541 
Q 544 4100 942 4425 
Q 1341 4750 2034 4750 
Q 2731 4750 3128 4425 
Q 3525 4100 3525 3541 
Q 3525 3141 3298 2862 
Q 3072 2584 2669 2484 
Q 3125 2378 3379 2068 
Q 3634 1759 3634 1313 
Q 3634 634 3220 271 
Q 2806 -91 2034 -91 
Q 1263 -91 848 271 
Q 434 634 434 1313 
Q 434 1759 690 2068 
Q 947 2378 1403 2484 
z
M 1172 3481 
Q 1172 3119 1398 2916 
Q 1625 2713 2034 2713 
Q 2441 2713 2670 2916 
Q 2900 3119 2900 3481 
Q 2900 3844 2670 4047 
Q 2441 4250 2034 4250 
Q 1625 4250 1398 4047 
Q 1172 3844 1172 3481 
z
" transform="scale(0.015625)"/>
       </defs>
       <use xlink:href="#DejaVuSans-38"/>
       <use xlink:href="#DejaVuSans-30" x="63.623047"/>
       <use xlink:href="#DejaVuSans-30" x="127.246094"/>
      </g>
     </g>
    </g>
    <g id="xtick_6">
     <g id="line2d_6">
      <g>
       <use xlink:href="#m8cb9eaeebd" x="398.812252" y="307.584" style="stroke: #000000; stroke-width: 0.8"/>
      </g>
     </g>
     <g id="text_6">
      <!-- 1000 -->
      <g transform="translate(386.087252 322.182437)scale(0.1 -0.1)">
       <defs>
        <path id="DejaVuSans-31" d="M 794 531 
L 1825 531 
L 1825 4091 
L 703 3866 
L 703 4441 
L 1819 4666 
L 2450 4666 
L 2450 531 
L 3481 531 
L 3481 0 
L 794 0 
L 794 531 
z
" transform="scale(0.015625)"/>
       </defs>
       <use xlink:href="#DejaVuSans-31"/>
       <use xlink:href="#DejaVuSans-30" x="63.623047"/>
       <use xlink:href="#DejaVuSans-30" x="127.246094"/>
       <use xlink:href="#DejaVuSans-30" x="190.869141"/>
      </g>
     </g>
    </g>
    <g id="text_7">
     <!-- epoch -->
     <g transform="translate(220.931875 335.860562)scale(0.1 -0.1)">
      <defs>
       <path id="DejaVuSans-65" d="M 3597 1894 
L 3597 1613 
L 953 1613 
Q 991 1019 1311 708 
Q 1631 397 2203 397 
Q 2534 397 2845 478 
Q 3156 559 3463 722 
L 3463 178 
Q 3153 47 2828 -22 
Q 2503 -91 2169 -91 
Q 1331 -91 842 396 
Q 353 884 353 1716 
Q 353 2575 817 3079 
Q 1281 3584 2069 3584 
Q 2775 3584 3186 3129 
Q 3597 2675 3597 1894 
z
M 3022 2063 
Q 3016 2534 2758 2815 
Q 2500 3097 2075 3097 
Q 1594 3097 1305 2825 
Q 1016 2553 972 2059 
L 3022 2063 
z
" transform="scale(0.015625)"/>
       <path id="DejaVuSans-70" d="M 1159 525 
L 1159 -1331 
L 581 -1331 
L 581 3500 
L 1159 3500 
L 1159 2969 
Q 1341 3281 1617 3432 
Q 1894 3584 2278 3584 
Q 2916 3584 3314 3078 
Q 3713 2572 3713 1747 
Q 3713 922 3314 415 
Q 2916 -91 2278 -91 
Q 1894 -91 1617 61 
Q 1341 213 1159 525 
z
M 3116 1747 
Q 3116 2381 2855 2742 
Q 2594 3103 2138 3103 
Q 1681 3103 1420 2742 
Q 1159 2381 1159 1747 
Q 1159 1113 1420 752 
Q 1681 391 2138 391 
Q 2594 391 2855 752 
Q 3116 1113 3116 1747 
z
" transform="scale(0.015625)"/>
       <path id="DejaVuSans-6f" d="M 1959 3097 
Q 1497 3097 1228 2736 
Q 959 2375 959 1747 
Q 959 1119 1226 758 
Q 1494 397 1959 397 
Q 2419 397 2687 759 
Q 2956 1122 2956 1747 
Q 2956 2369 2687 2733 
Q 2419 3097 1959 3097 
z
M 1959 3584 
Q 2709 3584 3137 3096 
Q 3566 2609 3566 1747 
Q 3566 888 3137 398 
Q 2709 -91 1959 -91 
Q 1206 -91 779 398 
Q 353 888 353 1747 
Q 353 2609 779 3096 
Q 1206 3584 1959 3584 
z
" transform="scale(0.015625)"/>
       <path id="DejaVuSans-63" d="M 3122 3366 
L 3122 2828 
Q 2878 2963 2633 3030 
Q 2388 3097 2138 3097 
Q 1578 3097 1268 2742 
Q 959 2388 959 1747 
Q 959 1106 1268 751 
Q 1578 397 2138 397 
Q 2388 397 2633 464 
Q 2878 531 3122 666 
L 3122 134 
Q 2881 22 2623 -34 
Q 2366 -91 2075 -91 
Q 1284 -91 818 406 
Q 353 903 353 1747 
Q 353 2603 823 3093 
Q 1294 3584 2113 3584 
Q 2378 3584 2631 3529 
Q 2884 3475 3122 3366 
z
" transform="scale(0.015625)"/>
       <path id="DejaVuSans-68" d="M 3513 2113 
L 3513 0 
L 2938 0 
L 2938 2094 
Q 2938 2591 2744 2837 
Q 2550 3084 2163 3084 
Q 1697 3084 1428 2787 
Q 1159 2491 1159 1978 
L 1159 0 
L 581 0 
L 581 4863 
L 1159 4863 
L 1159 2956 
Q 1366 3272 1645 3428 
Q 1925 3584 2291 3584 
Q 2894 3584 3203 3211 
Q 3513 2838 3513 2113 
z
" transform="scale(0.015625)"/>
      </defs>
      <use xlink:href="#DejaVuSans-65"/>
      <use xlink:href="#DejaVuSans-70" x="61.523438"/>
      <use xlink:href="#DejaVuSans-6f" x="125"/>
      <use xlink:href="#DejaVuSans-63" x="186.181641"/>
      <use xlink:href="#DejaVuSans-68" x="241.162109"/>
     </g>
    </g>
   </g>
   <g id="matplotlib.axis_2">
    <g id="ytick_1">
     <g id="line2d_7">
      <defs>
       <path id="mb7a0890a74" d="M 0 0 
L -3.5 0 
" style="stroke: #000000; stroke-width: 0.8"/>
      </defs>
      <g>
       <use xlink:href="#mb7a0890a74" x="57.6" y="303.513323" style="stroke: #000000; stroke-width: 0.8"/>
      </g>
     </g>
     <g id="text_8">
      <!-- 0.0 -->
      <g transform="translate(34.696875 307.312542)scale(0.1 -0.1)">
       <defs>
        <path id="DejaVuSans-2e" d="M 684 794 
L 1344 794 
L 1344 0 
L 684 0 
L 684 794 
z
" transform="scale(0.015625)"/>
       </defs>
       <use xlink:href="#DejaVuSans-30"/>
       <use xlink:href="#DejaVuSans-2e" x="63.623047"/>
       <use xlink:href="#DejaVuSans-30" x="95.410156"/>
      </g>
     </g>
    </g>
    <g id="ytick_2">
     <g id="line2d_8">
      <g>
       <use xlink:href="#mb7a0890a74" x="57.6" y="271.309748" style="stroke: #000000; stroke-width: 0.8"/>
      </g>
     </g>
     <g id="text_9">
      <!-- 2.5 -->
      <g transform="translate(34.696875 275.108967)scale(0.1 -0.1)">
       <defs>
        <path id="DejaVuSans-35" d="M 691 4666 
L 3169 4666 
L 3169 4134 
L 1269 4134 
L 1269 2991 
Q 1406 3038 1543 3061 
Q 1681 3084 1819 3084 
Q 2600 3084 3056 2656 
Q 3513 2228 3513 1497 
Q 3513 744 3044 326 
Q 2575 -91 1722 -91 
Q 1428 -91 1123 -41 
Q 819 9 494 109 
L 494 744 
Q 775 591 1075 516 
Q 1375 441 1709 441 
Q 2250 441 2565 725 
Q 2881 1009 2881 1497 
Q 2881 1984 2565 2268 
Q 2250 2553 1709 2553 
Q 1456 2553 1204 2497 
Q 953 2441 691 2322 
L 691 4666 
z
" transform="scale(0.015625)"/>
       </defs>
       <use xlink:href="#DejaVuSans-32"/>
       <use xlink:href="#DejaVuSans-2e" x="63.623047"/>
       <use xlink:href="#DejaVuSans-35" x="95.410156"/>
      </g>
     </g>
    </g>
    <g id="ytick_3">
     <g id="line2d_9">
      <g>
       <use xlink:href="#mb7a0890a74" x="57.6" y="239.106173" style="stroke: #000000; stroke-width: 0.8"/>
      </g>
     </g>
     <g id="text_10">
      <!-- 5.0 -->
      <g transform="translate(34.696875 242.905391)scale(0.1 -0.1)">
       <use xlink:href="#DejaVuSans-35"/>
       <use xlink:href="#DejaVuSans-2e" x="63.623047"/>
       <use xlink:href="#DejaVuSans-30" x="95.410156"/>
      </g>
     </g>
    </g>
    <g id="ytick_4">
     <g id="line2d_10">
      <g>
       <use xlink:href="#mb7a0890a74" x="57.6" y="206.902597" style="stroke: #000000; stroke-width: 0.8"/>
      </g>
     </g>
     <g id="text_11">
      <!-- 7.5 -->
      <g transform="translate(34.696875 210.701816)scale(0.1 -0.1)">
       <defs>
        <path id="DejaVuSans-37" d="M 525 4666 
L 3525 4666 
L 3525 4397 
L 1831 0 
L 1172 0 
L 2766 4134 
L 525 4134 
L 525 4666 
z
" transform="scale(0.015625)"/>
       </defs>
       <use xlink:href="#DejaVuSans-37"/>
       <use xlink:href="#DejaVuSans-2e" x="63.623047"/>
       <use xlink:href="#DejaVuSans-35" x="95.410156"/>
      </g>
     </g>
    </g>
    <g id="ytick_5">
     <g id="line2d_11">
      <g>
       <use xlink:href="#mb7a0890a74" x="57.6" y="174.699022" style="stroke: #000000; stroke-width: 0.8"/>
      </g>
     </g>
     <g id="text_12">
      <!-- 10.0 -->
      <g transform="translate(28.334375 178.498241)scale(0.1 -0.1)">
       <use xlink:href="#DejaVuSans-31"/>
       <use xlink:href="#DejaVuSans-30" x="63.623047"/>
       <use xlink:href="#DejaVuSans-2e" x="127.246094"/>
       <use xlink:href="#DejaVuSans-30" x="159.033203"/>
      </g>
     </g>
    </g>
    <g id="ytick_6">
     <g id="line2d_12">
      <g>
       <use xlink:href="#mb7a0890a74" x="57.6" y="142.495447" style="stroke: #000000; stroke-width: 0.8"/>
      </g>
     </g>
     <g id="text_13">
      <!-- 12.5 -->
      <g transform="translate(28.334375 146.294665)scale(0.1 -0.1)">
       <use xlink:href="#DejaVuSans-31"/>
       <use xlink:href="#DejaVuSans-32" x="63.623047"/>
       <use xlink:href="#DejaVuSans-2e" x="127.246094"/>
       <use xlink:href="#DejaVuSans-35" x="159.033203"/>
      </g>
     </g>
    </g>
    <g id="ytick_7">
     <g id="line2d_13">
      <g>
       <use xlink:href="#mb7a0890a74" x="57.6" y="110.291871" style="stroke: #000000; stroke-width: 0.8"/>
      </g>
     </g>
     <g id="text_14">
      <!-- 15.0 -->
      <g transform="translate(28.334375 114.09109)scale(0.1 -0.1)">
       <use xlink:href="#DejaVuSans-31"/>
       <use xlink:href="#DejaVuSans-35" x="63.623047"/>
       <use xlink:href="#DejaVuSans-2e" x="127.246094"/>
       <use xlink:href="#DejaVuSans-30" x="159.033203"/>
      </g>
     </g>
    </g>
    <g id="ytick_8">
     <g id="line2d_14">
      <g>
       <use xlink:href="#mb7a0890a74" x="57.6" y="78.088296" style="stroke: #000000; stroke-width: 0.8"/>
      </g>
     </g>
     <g id="text_15">
      <!-- 17.5 -->
      <g transform="translate(28.334375 81.887515)scale(0.1 -0.1)">
       <use xlink:href="#DejaVuSans-31"/>
       <use xlink:href="#DejaVuSans-37" x="63.623047"/>
       <use xlink:href="#DejaVuSans-2e" x="127.246094"/>
       <use xlink:href="#DejaVuSans-35" x="159.033203"/>
      </g>
     </g>
    </g>
    <g id="ytick_9">
     <g id="line2d_15">
      <g>
       <use xlink:href="#mb7a0890a74" x="57.6" y="45.88472" style="stroke: #000000; stroke-width: 0.8"/>
      </g>
     </g>
     <g id="text_16">
      <!-- 20.0 -->
      <g transform="translate(28.334375 49.683939)scale(0.1 -0.1)">
       <use xlink:href="#DejaVuSans-32"/>
       <use xlink:href="#DejaVuSans-30" x="63.623047"/>
       <use xlink:href="#DejaVuSans-2e" x="127.246094"/>
       <use xlink:href="#DejaVuSans-30" x="159.033203"/>
      </g>
     </g>
    </g>
    <g id="text_17">
     <!-- average reward -->
     <g transform="translate(22.254687 213.902219)rotate(-90)scale(0.1 -0.1)">
      <defs>
       <path id="DejaVuSans-61" d="M 2194 1759 
Q 1497 1759 1228 1600 
Q 959 1441 959 1056 
Q 959 750 1161 570 
Q 1363 391 1709 391 
Q 2188 391 2477 730 
Q 2766 1069 2766 1631 
L 2766 1759 
L 2194 1759 
z
M 3341 1997 
L 3341 0 
L 2766 0 
L 2766 531 
Q 2569 213 2275 61 
Q 1981 -91 1556 -91 
Q 1019 -91 701 211 
Q 384 513 384 1019 
Q 384 1609 779 1909 
Q 1175 2209 1959 2209 
L 2766 2209 
L 2766 2266 
Q 2766 2663 2505 2880 
Q 2244 3097 1772 3097 
Q 1472 3097 1187 3025 
Q 903 2953 641 2809 
L 641 3341 
Q 956 3463 1253 3523 
Q 1550 3584 1831 3584 
Q 2591 3584 2966 3190 
Q 3341 2797 3341 1997 
z
" transform="scale(0.015625)"/>
       <path id="DejaVuSans-76" d="M 191 3500 
L 800 3500 
L 1894 563 
L 2988 3500 
L 3597 3500 
L 2284 0 
L 1503 0 
L 191 3500 
z
" transform="scale(0.015625)"/>
       <path id="DejaVuSans-72" d="M 2631 2963 
Q 2534 3019 2420 3045 
Q 2306 3072 2169 3072 
Q 1681 3072 1420 2755 
Q 1159 2438 1159 1844 
L 1159 0 
L 581 0 
L 581 3500 
L 1159 3500 
L 1159 2956 
Q 1341 3275 1631 3429 
Q 1922 3584 2338 3584 
Q 2397 3584 2469 3576 
Q 2541 3569 2628 3553 
L 2631 2963 
z
" transform="scale(0.015625)"/>
       <path id="DejaVuSans-67" d="M 2906 1791 
Q 2906 2416 2648 2759 
Q 2391 3103 1925 3103 
Q 1463 3103 1205 2759 
Q 947 2416 947 1791 
Q 947 1169 1205 825 
Q 1463 481 1925 481 
Q 2391 481 2648 825 
Q 2906 1169 2906 1791 
z
M 3481 434 
Q 3481 -459 3084 -895 
Q 2688 -1331 1869 -1331 
Q 1566 -1331 1297 -1286 
Q 1028 -1241 775 -1147 
L 775 -588 
Q 1028 -725 1275 -790 
Q 1522 -856 1778 -856 
Q 2344 -856 2625 -561 
Q 2906 -266 2906 331 
L 2906 616 
Q 2728 306 2450 153 
Q 2172 0 1784 0 
Q 1141 0 747 490 
Q 353 981 353 1791 
Q 353 2603 747 3093 
Q 1141 3584 1784 3584 
Q 2172 3584 2450 3431 
Q 2728 3278 2906 2969 
L 2906 3500 
L 3481 3500 
L 3481 434 
z
" transform="scale(0.015625)"/>
       <path id="DejaVuSans-20" transform="scale(0.015625)"/>
       <path id="DejaVuSans-77" d="M 269 3500 
L 844 3500 
L 1563 769 
L 2278 3500 
L 2956 3500 
L 3675 769 
L 4391 3500 
L 4966 3500 
L 4050 0 
L 3372 0 
L 2619 2869 
L 1863 0 
L 1184 0 
L 269 3500 
z
" transform="scale(0.015625)"/>
       <path id="DejaVuSans-64" d="M 2906 2969 
L 2906 4863 
L 3481 4863 
L 3481 0 
L 2906 0 
L 2906 525 
Q 2725 213 2448 61 
Q 2172 -91 1784 -91 
Q 1150 -91 751 415 
Q 353 922 353 1747 
Q 353 2572 751 3078 
Q 1150 3584 1784 3584 
Q 2172 3584 2448 3432 
Q 2725 3281 2906 2969 
z
M 947 1747 
Q 947 1113 1208 752 
Q 1469 391 1925 391 
Q 2381 391 2643 752 
Q 2906 1113 2906 1747 
Q 2906 2381 2643 2742 
Q 2381 3103 1925 3103 
Q 1469 3103 1208 2742 
Q 947 2381 947 1747 
z
" transform="scale(0.015625)"/>
      </defs>
      <use xlink:href="#DejaVuSans-61"/>
      <use xlink:href="#DejaVuSans-76" x="61.279297"/>
      <use xlink:href="#DejaVuSans-65" x="120.458984"/>
      <use xlink:href="#DejaVuSans-72" x="181.982422"/>
      <use xlink:href="#DejaVuSans-61" x="223.095703"/>
      <use xlink:href="#DejaVuSans-67" x="284.375"/>
      <use xlink:href="#DejaVuSans-65" x="347.851562"/>
      <use xlink:href="#DejaVuSans-20" x="409.375"/>
      <use xlink:href="#DejaVuSans-72" x="441.162109"/>
      <use xlink:href="#DejaVuSans-65" x="480.025391"/>
      <use xlink:href="#DejaVuSans-77" x="541.548828"/>
      <use xlink:href="#DejaVuSans-61" x="623.335938"/>
      <use xlink:href="#DejaVuSans-72" x="684.615234"/>
      <use xlink:href="#DejaVuSans-64" x="723.978516"/>
     </g>
    </g>
   </g>
   <g id="line2d_16">
    <path d="M 73.832727 288.668698 
L 74.157707 295.488 
L 74.482686 283.529093 
L 74.807666 285.043643 
L 75.132645 292.838013 
L 75.457625 285.929922 
L 75.782604 289.44354 
L 76.107584 283.514927 
L 76.432563 287.552486 
L 76.757543 284.673176 
L 77.082523 285.331283 
L 77.407502 287.540448 
L 77.732482 286.69816 
L 78.057461 288.187459 
L 78.382441 283.699935 
L 78.70742 285.32951 
L 79.0324 278.595433 
L 79.357379 282.96398 
L 80.007338 279.600031 
L 80.332318 286.006778 
L 80.657297 283.263618 
L 80.982277 282.643163 
L 81.307256 282.699819 
L 81.632236 281.3397 
L 81.957215 285.464846 
L 82.282195 283.15177 
L 82.932154 281.329498 
L 83.257133 279.604359 
L 83.582113 281.375492 
L 83.907093 279.820542 
L 84.232072 282.080304 
L 84.557052 282.887808 
L 84.882031 279.701658 
L 85.207011 284.292833 
L 85.53199 283.122625 
L 85.85697 279.316378 
L 86.506929 282.666714 
L 87.156888 281.468133 
L 87.481867 278.293306 
L 87.806847 276.486928 
L 88.131826 279.719437 
L 88.456806 278.88242 
L 88.781785 276.441922 
L 89.106765 270.368081 
L 89.431744 278.080564 
L 89.756724 273.79672 
L 90.081704 278.599251 
L 90.406683 277.686648 
L 90.731663 280.051382 
L 91.056642 278.11032 
L 91.381622 274.971531 
L 92.031581 273.935188 
L 92.35656 272.568964 
L 92.68154 265.727215 
L 93.006519 271.305972 
L 93.331499 273.654894 
L 93.656478 276.954534 
L 93.981458 266.875901 
L 94.306437 274.428912 
L 94.631417 275.87862 
L 94.956396 271.81818 
L 95.281376 270.941911 
L 95.606355 270.59395 
L 95.931335 270.42638 
L 96.256314 267.850727 
L 96.581294 267.380724 
L 96.906274 269.234576 
L 97.231253 270.302757 
L 97.556233 259.451523 
L 97.881212 265.626489 
L 98.206192 256.648912 
L 98.531171 254.975557 
L 98.856151 255.1034 
L 99.18113 255.505613 
L 99.50611 257.890667 
L 99.831089 268.046407 
L 100.156069 257.28569 
L 100.481048 255.814494 
L 100.806028 263.766178 
L 101.131007 250.96444 
L 101.455987 256.88234 
L 101.780966 257.04505 
L 102.105946 257.062523 
L 102.430925 259.538571 
L 102.755905 251.540005 
L 103.080885 250.211313 
L 103.405864 252.343673 
L 103.730844 252.058252 
L 104.055823 249.949279 
L 104.380803 245.386913 
L 104.705782 252.595808 
L 105.030762 240.972022 
L 105.355741 245.519607 
L 105.680721 244.518682 
L 106.33068 255.426604 
L 106.980639 236.990402 
L 107.305618 244.050973 
L 107.630598 241.941895 
L 107.955577 237.121136 
L 108.280557 239.362303 
L 108.930516 235.060651 
L 109.255495 242.67816 
L 109.580475 245.72272 
L 109.905455 247.481491 
L 110.230434 239.142355 
L 110.555414 240.320586 
L 110.880393 237.391214 
L 111.205373 239.04284 
L 111.530352 234.356009 
L 111.855332 243.900895 
L 112.505291 232.621702 
L 112.83027 239.078056 
L 113.15525 241.280837 
L 113.480229 230.323836 
L 114.130188 235.749677 
L 114.455168 232.322274 
L 114.780147 240.994823 
L 115.105127 240.967946 
L 115.430106 230.064049 
L 115.755086 229.732473 
L 116.080066 223.579808 
L 116.405045 233.815541 
L 116.730025 230.008312 
L 117.055004 224.680925 
L 117.379984 228.358953 
L 117.704963 226.046997 
L 118.029943 227.946694 
L 118.354922 227.901459 
L 118.679902 225.863308 
L 119.004881 226.861139 
L 119.329861 229.048789 
L 119.65484 226.944605 
L 119.97982 228.833695 
L 120.304799 221.025404 
L 120.629779 221.081039 
L 120.954758 218.529515 
L 121.279738 222.400416 
L 121.604717 224.132933 
L 121.929697 216.642247 
L 122.579656 220.969158 
L 122.904636 211.151347 
L 123.229615 217.959415 
L 123.554595 215.577016 
L 123.879574 219.209534 
L 124.204554 220.271802 
L 124.854513 211.202367 
L 125.179492 215.190688 
L 125.504472 207.709811 
L 125.829451 216.871649 
L 126.154431 209.519035 
L 126.47941 216.479639 
L 126.80439 210.48952 
L 127.129369 208.420944 
L 127.454349 211.624805 
L 127.779328 204.966165 
L 128.104308 211.373307 
L 128.429287 208.491938 
L 128.754267 208.880794 
L 129.079247 206.394821 
L 129.404226 208.322055 
L 129.729206 198.38286 
L 130.054185 209.736484 
L 130.704144 197.465221 
L 131.029124 198.681651 
L 131.354103 196.745738 
L 131.679083 195.798279 
L 132.004062 195.24296 
L 132.329042 197.680782 
L 132.654021 194.576481 
L 132.979001 196.010806 
L 133.62896 192.786461 
L 133.953939 198.454159 
L 134.278919 190.852395 
L 134.603898 188.800816 
L 134.928878 195.781207 
L 135.253857 189.821626 
L 135.578837 191.176996 
L 135.903817 189.908327 
L 136.228796 189.99529 
L 136.553776 192.470738 
L 136.878755 196.962968 
L 137.203735 195.469983 
L 137.853694 185.018415 
L 138.178673 190.209233 
L 138.503653 189.445327 
L 138.828632 184.553184 
L 139.153612 185.577321 
L 139.478591 185.039492 
L 140.12855 191.886107 
L 140.45353 177.484315 
L 140.778509 179.381968 
L 141.103489 183.659508 
L 141.428468 183.767526 
L 141.753448 172.994526 
L 142.078428 178.319745 
L 142.403407 177.245513 
L 142.728387 170.287788 
L 143.053366 176.560915 
L 143.378346 175.499624 
L 143.703325 169.788105 
L 144.028305 170.723854 
L 144.353284 169.33358 
L 144.678264 170.514267 
L 145.003243 169.120521 
L 145.328223 169.213184 
L 145.653202 170.685793 
L 145.978182 174.774066 
L 146.303161 160.250458 
L 146.628141 172.54306 
L 147.2781 166.751778 
L 147.603079 167.756574 
L 147.928059 166.048241 
L 148.253038 163.674023 
L 148.578018 162.973882 
L 148.902998 164.04662 
L 149.227977 164.135308 
L 149.552957 165.213402 
L 149.877936 162.011277 
L 150.202916 162.294287 
L 150.852875 161.276317 
L 151.177854 162.653874 
L 151.502834 155.303209 
L 151.827813 157.923932 
L 152.152793 155.29929 
L 152.477772 159.950586 
L 152.802752 156.307559 
L 153.127731 156.855378 
L 153.452711 157.112507 
L 153.77769 157.100344 
L 154.10267 161.022818 
L 154.427649 155.887201 
L 154.752629 156.886966 
L 155.077609 153.489336 
L 155.402588 148.881699 
L 155.727568 156.784677 
L 156.052547 150.259875 
L 156.377527 152.078935 
L 156.702506 150.843543 
L 157.027486 148.474915 
L 157.352465 152.420909 
L 157.677445 148.656376 
L 158.002424 154.033285 
L 158.327404 149.996512 
L 158.652383 152.201665 
L 158.977363 147.015795 
L 159.302342 150.085636 
L 159.627322 149.275953 
L 159.952301 151.05229 
L 160.92724 143.090337 
L 161.252219 143.852828 
L 161.577199 143.750961 
L 161.902179 142.852716 
L 162.227158 145.880739 
L 162.552138 144.511598 
L 162.877117 143.838377 
L 163.202097 145.325747 
L 163.527076 140.422757 
L 164.177035 141.826653 
L 164.502015 139.165431 
L 164.826994 145.019612 
L 165.151974 141.636265 
L 165.476953 140.644702 
L 165.801933 141.172382 
L 166.126912 139.563651 
L 166.451892 138.801022 
L 166.776871 142.853255 
L 167.101851 138.136586 
L 167.42683 136.84911 
L 167.75181 140.829084 
L 168.401769 139.601332 
L 168.726749 137.631694 
L 169.051728 131.265233 
L 169.376708 132.663437 
L 169.701687 135.461089 
L 170.026667 132.461848 
L 170.351646 134.829333 
L 170.676626 133.001575 
L 171.001605 132.918127 
L 171.326585 132.705983 
L 171.651564 137.0632 
L 171.976544 133.727935 
L 172.301523 132.262303 
L 172.626503 133.03387 
L 172.951482 130.68498 
L 173.276462 127.332737 
L 173.601441 133.16135 
L 173.926421 127.817562 
L 174.2514 130.2037 
L 174.57638 127.739047 
L 174.90136 127.755343 
L 175.226339 125.391969 
L 175.551319 125.554789 
L 175.876298 122.707003 
L 176.526257 123.955835 
L 177.176216 119.894447 
L 177.501196 119.51488 
L 177.826175 122.735938 
L 178.151155 120.943017 
L 178.476134 116.689502 
L 178.801114 116.247921 
L 179.126093 118.536587 
L 179.451073 119.388354 
L 180.101032 116.323069 
L 180.426011 118.223097 
L 180.750991 114.942996 
L 181.075971 113.13541 
L 181.40095 114.324667 
L 181.72593 116.908559 
L 182.375889 108.750139 
L 182.700868 108.547168 
L 183.025848 110.908912 
L 183.350827 112.227539 
L 183.675807 109.246485 
L 184.325766 107.5835 
L 184.650745 110.869981 
L 184.975725 108.353056 
L 185.300704 112.9968 
L 185.625684 101.027325 
L 185.950663 105.086611 
L 186.600622 109.942991 
L 186.925602 95.639455 
L 187.250581 100.797964 
L 187.575561 100.975331 
L 187.900541 101.324851 
L 188.22552 102.283532 
L 188.5505 105.478457 
L 188.875479 97.331122 
L 189.200459 100.705674 
L 189.525438 94.353449 
L 189.850418 104.236095 
L 190.175397 101.915416 
L 190.500377 94.963689 
L 190.825356 99.957654 
L 191.150336 92.816331 
L 191.475315 99.99208 
L 191.800295 92.616933 
L 192.450254 91.606288 
L 192.775233 95.12833 
L 193.100213 87.549457 
L 193.425192 91.333585 
L 193.750172 86.032232 
L 194.075152 93.091919 
L 194.400131 92.603988 
L 194.725111 88.448553 
L 195.05009 91.000555 
L 195.37507 89.092508 
L 195.700049 82.600293 
L 196.025029 87.580268 
L 196.350008 82.779257 
L 196.674988 82.070914 
L 196.999967 82.904573 
L 197.324947 83.257259 
L 197.649926 85.124151 
L 197.974906 83.931005 
L 198.299885 79.229231 
L 198.624865 79.308769 
L 199.274824 82.730647 
L 199.924783 77.764346 
L 200.249762 78.568863 
L 200.574742 82.098504 
L 200.899722 80.001285 
L 201.224701 76.940958 
L 201.549681 79.497712 
L 201.87466 79.355346 
L 202.19964 83.61598 
L 202.524619 76.494332 
L 202.849599 74.903733 
L 203.174578 81.580082 
L 203.499558 77.009269 
L 203.824537 75.135802 
L 204.149517 75.190468 
L 204.474496 74.653574 
L 204.799476 74.619487 
L 205.124455 74.249299 
L 205.449435 77.966986 
L 205.774414 71.562156 
L 206.099394 76.119784 
L 206.424373 72.179071 
L 206.749353 71.141969 
L 207.074333 74.427247 
L 207.399312 73.774967 
L 207.724292 70.558736 
L 208.049271 82.149705 
L 208.374251 73.526816 
L 208.69923 75.796751 
L 209.02421 68.392801 
L 209.674169 77.653187 
L 209.999148 71.977658 
L 210.324128 71.623858 
L 210.649107 68.862391 
L 210.974087 73.017482 
L 211.299066 68.524513 
L 211.624046 72.349374 
L 211.949025 69.467731 
L 212.274005 72.717847 
L 212.598984 68.210657 
L 212.923964 72.680126 
L 213.248943 69.803662 
L 213.573923 69.456342 
L 213.898903 68.551715 
L 214.223882 69.231806 
L 214.548862 67.721265 
L 214.873841 70.587008 
L 215.198821 66.222832 
L 215.5238 69.230805 
L 215.84878 67.478446 
L 216.173759 68.983556 
L 216.498739 66.721433 
L 216.823718 69.017616 
L 217.148698 68.692434 
L 218.123636 62.937155 
L 218.448616 65.973805 
L 218.773595 66.910815 
L 219.423554 64.182387 
L 219.748534 65.977485 
L 220.073514 63.440674 
L 220.723473 63.330596 
L 221.048452 63.957245 
L 221.373432 64.885686 
L 221.698411 66.794022 
L 222.023391 65.509852 
L 222.34837 62.445148 
L 222.67335 63.172711 
L 222.998329 65.110448 
L 223.323309 62.466838 
L 223.648288 67.621974 
L 223.973268 62.812403 
L 224.298247 63.354602 
L 224.623227 62.634434 
L 224.948206 64.328519 
L 225.273186 62.569325 
L 225.598165 62.435066 
L 225.923145 63.579665 
L 226.248124 61.945818 
L 226.573104 62.212795 
L 226.898084 61.739799 
L 227.223063 64.007942 
L 227.548043 60.111614 
L 227.873022 64.032416 
L 228.198002 61.267066 
L 228.522981 61.739869 
L 228.847961 59.523622 
L 229.17294 62.782593 
L 229.822899 60.902927 
L 230.472858 64.198521 
L 230.797838 63.485793 
L 231.122817 60.400536 
L 231.447797 59.205239 
L 231.772776 61.036437 
L 232.097756 65.963987 
L 232.422735 60.745832 
L 232.747715 60.503352 
L 233.072695 59.205206 
L 233.722654 60.887599 
L 234.047633 59.253972 
L 234.372613 61.52889 
L 234.697592 61.665082 
L 235.022572 58.12465 
L 235.347551 61.671489 
L 235.672531 61.612784 
L 235.99751 61.864858 
L 236.32249 57.875571 
L 236.647469 58.111999 
L 236.972449 58.690904 
L 237.297428 57.899107 
L 237.622408 60.268591 
L 237.947387 58.388249 
L 238.272367 59.261623 
L 238.597346 57.356918 
L 238.922326 57.482889 
L 239.247305 58.008357 
L 239.572285 59.610083 
L 239.897265 59.208698 
L 240.222244 59.68482 
L 240.547224 58.356214 
L 240.872203 59.137931 
L 241.197183 59.01089 
L 241.522162 58.35707 
L 241.847142 58.001143 
L 242.172121 58.01561 
L 242.497101 58.605183 
L 242.82208 57.429982 
L 243.14706 58.25289 
L 243.472039 57.990799 
L 243.797019 61.155763 
L 244.121998 58.881464 
L 244.446978 62.657184 
L 244.771957 56.529295 
L 245.096937 61.082585 
L 245.421916 60.521563 
L 245.746896 58.088975 
L 246.071876 56.8408 
L 246.396855 59.88386 
L 246.721835 57.855267 
L 247.046814 58.930081 
L 247.371794 56.91016 
L 247.696773 59.775508 
L 248.021753 58.190271 
L 248.346732 58.291467 
L 248.671712 57.272287 
L 248.996691 58.522648 
L 249.321671 59.114806 
L 249.64665 57.263201 
L 249.97163 57.275277 
L 250.296609 57.076474 
L 250.621589 58.907091 
L 250.946568 57.433106 
L 251.271548 56.831492 
L 251.596527 59.796 
L 251.921507 56.161067 
L 252.246486 57.035922 
L 252.571466 55.646442 
L 252.896446 59.537346 
L 253.221425 55.672724 
L 253.546405 58.666926 
L 253.871384 58.158392 
L 254.196364 58.672469 
L 254.521343 56.950081 
L 254.846323 57.642099 
L 255.171302 58.844744 
L 255.496282 56.019507 
L 255.821261 57.848735 
L 256.146241 57.016704 
L 256.47122 57.93535 
L 256.7962 56.893633 
L 257.121179 56.739476 
L 257.446159 55.611254 
L 257.771138 56.537466 
L 258.096118 55.641195 
L 258.421097 57.390843 
L 258.746077 57.928916 
L 259.071057 56.05822 
L 259.396036 56.056118 
L 259.721016 55.74778 
L 260.045995 55.870202 
L 260.370975 56.30136 
L 260.695954 56.093343 
L 261.020934 55.45924 
L 261.670893 55.270904 
L 261.995872 57.984904 
L 262.320852 55.14343 
L 262.645831 56.855657 
L 262.970811 54.405794 
L 263.29579 56.752937 
L 263.62077 54.739782 
L 264.270729 56.697428 
L 264.595708 56.941638 
L 264.920688 56.101032 
L 265.245667 54.918041 
L 265.570647 55.621696 
L 265.895627 58.692539 
L 266.220606 56.61373 
L 266.545586 56.941322 
L 266.870565 55.275422 
L 267.195545 55.147801 
L 267.520524 55.866279 
L 267.845504 55.702883 
L 268.170483 57.843085 
L 268.495463 56.713299 
L 268.820442 59.907739 
L 269.145422 56.107403 
L 269.470401 56.016276 
L 269.795381 54.997222 
L 270.44534 56.772892 
L 270.770319 55.866798 
L 271.095299 58.018035 
L 271.420278 55.30622 
L 271.745258 54.982637 
L 272.395217 54.784142 
L 272.720197 55.550849 
L 273.045176 55.44036 
L 273.370156 56.817385 
L 273.695135 55.276843 
L 274.020115 56.679253 
L 274.345094 55.436168 
L 274.670074 57.327571 
L 274.995053 54.476967 
L 275.320033 55.539745 
L 275.645012 55.564221 
L 275.969992 54.719016 
L 276.294971 55.79229 
L 276.619951 54.583178 
L 276.94493 57.2346 
L 277.26991 55.143264 
L 277.594889 54.069939 
L 277.919869 54.947446 
L 278.244848 55.346868 
L 278.569828 54.08114 
L 278.894808 56.024115 
L 279.219787 54.25381 
L 279.544767 55.133503 
L 279.869746 55.104505 
L 280.194726 55.987073 
L 280.519705 54.12087 
L 280.844685 53.908163 
L 281.169664 53.983997 
L 281.494644 56.010784 
L 281.819623 53.775619 
L 282.144603 55.763492 
L 282.469582 54.723159 
L 282.794562 56.952619 
L 283.119541 56.880943 
L 283.444521 54.965063 
L 284.09448 55.097327 
L 284.419459 53.873266 
L 284.744439 54.834168 
L 285.394398 54.482947 
L 285.719378 55.588028 
L 286.369337 53.584529 
L 286.694316 57.453647 
L 287.019296 56.706622 
L 287.344275 53.867066 
L 287.669255 54.67951 
L 287.994234 54.69144 
L 288.319214 56.626237 
L 288.644193 53.719919 
L 288.969173 55.676267 
L 289.294152 53.884342 
L 289.619132 54.842191 
L 290.269091 55.071671 
L 290.59407 53.815472 
L 290.91905 58.714768 
L 291.244029 57.812056 
L 291.569009 54.803557 
L 291.893989 53.667561 
L 292.218968 54.598331 
L 292.543948 54.559694 
L 292.868927 56.610231 
L 293.193907 54.582297 
L 293.518886 54.760438 
L 293.843866 53.790774 
L 294.168845 55.82856 
L 294.493825 55.861576 
L 294.818804 54.926916 
L 295.143784 54.89336 
L 295.468763 53.946851 
L 295.793743 55.960624 
L 296.118722 53.998182 
L 296.768681 53.934282 
L 297.093661 55.818694 
L 297.41864 53.867966 
L 297.74362 54.769951 
L 298.0686 54.87157 
L 298.393579 54.686195 
L 299.043538 54.867112 
L 299.368518 53.907968 
L 299.693497 55.975486 
L 300.018477 53.914183 
L 300.668436 56.000851 
L 300.993415 53.989698 
L 301.318395 54.846499 
L 301.643374 53.819263 
L 301.968354 55.951231 
L 302.618313 53.82313 
L 302.943292 53.874403 
L 303.268272 53.798919 
L 303.593251 54.800801 
L 303.918231 53.727806 
L 304.24321 55.623408 
L 304.56819 53.568 
L 304.89317 53.596741 
L 305.218149 56.542454 
L 305.543129 54.777245 
L 306.193088 57.059597 
L 306.518067 57.409468 
L 306.843047 57.576773 
L 307.817985 57.595964 
L 309.767862 57.69492 
L 310.092842 57.597908 
L 310.417821 57.680774 
L 311.39276 57.573126 
L 312.042719 57.670232 
L 312.692678 57.588421 
L 314.317576 57.633228 
L 314.642555 57.695387 
L 314.967535 57.594365 
L 315.617494 57.731808 
L 315.942473 57.57292 
L 316.917412 57.661738 
L 321.142146 57.586639 
L 321.467125 57.708107 
L 322.117084 57.556474 
L 322.767043 57.661736 
L 324.391941 57.57115 
L 325.0419 57.690925 
L 325.691859 57.603914 
L 326.016839 57.687794 
L 326.341818 57.610404 
L 326.991777 57.635472 
L 327.641736 57.668971 
L 330.241572 57.645722 
L 330.566552 57.728413 
L 331.541491 57.596396 
L 332.841409 57.648696 
L 333.491368 57.625033 
L 334.791286 57.623807 
L 335.116265 57.591873 
L 335.441245 57.677735 
L 335.766224 57.579903 
L 336.416183 57.684401 
L 337.066143 57.57497 
L 337.391122 57.704213 
L 338.366061 57.594057 
L 344.215692 57.634406 
L 344.540672 57.592722 
L 345.190631 57.682088 
L 345.51561 57.578044 
L 345.84059 57.701545 
L 346.165569 57.602695 
L 347.140508 57.59793 
L 349.090385 57.673156 
L 349.740344 57.562227 
L 351.365242 57.659794 
L 352.34018 57.644806 
L 352.66516 58.53773 
L 352.990139 57.736068 
L 353.965078 57.596293 
L 364.039443 57.623259 
L 364.364423 57.581074 
L 365.014382 57.685624 
L 365.339361 57.547658 
L 365.98932 57.634355 
L 366.3143 57.535258 
L 367.614218 57.711653 
L 368.264177 57.573673 
L 368.589156 57.725765 
L 368.914136 57.563971 
L 370.214054 57.686137 
L 371.188993 57.570188 
L 372.163931 57.665062 
L 372.488911 57.587302 
L 372.81389 57.682849 
L 373.788829 57.628833 
L 375.413726 57.606773 
L 376.063686 57.646203 
L 376.713645 57.562568 
L 378.013563 57.610658 
L 386.78801 57.652731 
L 387.112989 57.532517 
L 387.437969 57.65618 
L 389.712826 57.608707 
L 390.037805 57.693087 
L 390.687764 57.656226 
L 391.662703 57.550566 
L 391.987682 57.665541 
L 392.312662 57.554752 
L 392.637641 57.668674 
L 395.887437 57.604684 
L 396.212416 57.681637 
L 396.862375 57.629377 
L 397.512334 57.635187 
L 398.487273 57.594543 
L 398.487273 57.594543 
" clip-path="url(#pf515d62ecf)" style="fill: none; stroke: #1f77b4; stroke-width: 1.5; stroke-linecap: square"/>
   </g>
   <g id="patch_3">
    <path d="M 57.6 307.584 
L 57.6 41.472 
" style="fill: none; stroke: #000000; stroke-width: 0.8; stroke-linejoin: miter; stroke-linecap: square"/>
   </g>
   <g id="patch_4">
    <path d="M 414.72 307.584 
L 414.72 41.472 
" style="fill: none; stroke: #000000; stroke-width: 0.8; stroke-linejoin: miter; stroke-linecap: square"/>
   </g>
   <g id="patch_5">
    <path d="M 57.6 307.584 
L 414.72 307.584 
" style="fill: none; stroke: #000000; stroke-width: 0.8; stroke-linejoin: miter; stroke-linecap: square"/>
   </g>
   <g id="patch_6">
    <path d="M 57.6 41.472 
L 414.72 41.472 
" style="fill: none; stroke: #000000; stroke-width: 0.8; stroke-linejoin: miter; stroke-linecap: square"/>
   </g>
  </g>
 </g>
 <defs>
  <clipPath id="pf515d62ecf">
   <rect x="57.6" y="41.472" width="357.12" height="266.112"/>
  </clipPath>
 </defs>
</svg>
